<svg width="53" height="135" viewBox="0 0 53 135" fill="none" xmlns="http://www.w3.org/2000/svg">
<path d="M2.84009 116.625H4.19751L8.06958 121.957V116.625H9.30005L9.30005 123.563H7.92798L4.07056 118.221L4.07056 123.563H2.84009L2.84009 116.625ZM13.7141 116.625H15.0618L17.8059 123.563H16.5413L15.7649 121.747H12.9329L12.1565 123.563H10.9651L13.7141 116.625ZM15.3352 120.619L14.3489 118.045L13.3577 120.619H15.3352ZM25.7258 122.557C25.052 123.293 24.0885 123.661 22.8352 123.661C22.3014 123.661 21.8131 123.592 21.3704 123.456C20.9309 123.316 20.5631 123.132 20.2668 122.904C19.9706 122.673 19.72 122.403 19.5149 122.093C19.3131 121.784 19.1666 121.463 19.0754 121.131C18.9843 120.796 18.9387 120.453 18.9387 120.101C18.9387 119.733 18.9892 119.378 19.0901 119.037C19.191 118.695 19.3472 118.374 19.5588 118.075C19.7737 117.775 20.0308 117.515 20.3303 117.293C20.6331 117.069 20.9976 116.893 21.4241 116.766C21.8505 116.636 22.316 116.571 22.8206 116.571C23.7418 116.571 24.5702 116.776 25.3059 117.186L25.4768 117.284L24.9641 118.25L24.7883 118.158C24.5572 118.041 24.2675 117.936 23.9192 117.845C23.5709 117.751 23.2209 117.704 22.8694 117.704C22.5243 117.704 22.1907 117.757 21.8684 117.865C21.5461 117.972 21.2581 118.124 21.0042 118.319C20.7535 118.514 20.5517 118.763 20.3987 119.066C20.2489 119.365 20.1741 119.694 20.1741 120.052C20.1741 120.524 20.2978 120.949 20.5452 121.327C20.7926 121.704 21.1344 121.999 21.5706 122.21C22.01 122.419 22.5032 122.523 23.05 122.523C23.649 122.523 24.1389 122.388 24.5198 122.118V120.785H22.3469V119.701H25.7258V122.557ZM31.1799 116.551C31.8863 116.551 32.5146 116.69 33.0647 116.966C33.6148 117.243 34.0478 117.647 34.3635 118.177C34.6793 118.705 34.8372 119.318 34.8372 120.018C34.8372 120.728 34.6825 121.358 34.3733 121.908C34.064 122.455 33.6295 122.879 33.0696 123.182C32.5097 123.485 31.8668 123.636 31.1409 123.636C30.6624 123.636 30.2083 123.563 29.7786 123.417C29.3489 123.267 28.9631 123.05 28.6213 122.767C28.2828 122.481 28.0126 122.11 27.8108 121.654C27.6122 121.198 27.5129 120.684 27.5129 120.111C27.5129 119.398 27.6692 118.771 27.9817 118.231C28.2942 117.687 28.7271 117.272 29.2805 116.986C29.8339 116.696 30.467 116.551 31.1799 116.551ZM31.8196 117.767C31.595 117.708 31.3655 117.679 31.1311 117.679C30.8967 117.679 30.6689 117.708 30.4475 117.767C30.2262 117.822 30.0129 117.912 29.8079 118.036C29.606 118.156 29.4286 118.306 29.2756 118.485C29.1226 118.664 29.0006 118.885 28.9094 119.149C28.8183 119.409 28.7727 119.697 28.7727 120.013C28.7727 120.765 29.0055 121.369 29.4709 121.825C29.9364 122.28 30.5175 122.508 31.2141 122.508C31.5038 122.508 31.7838 122.461 32.054 122.367C32.3274 122.272 32.5797 122.132 32.8108 121.947C33.0419 121.761 33.2275 121.509 33.3674 121.19C33.5074 120.871 33.5774 120.508 33.5774 120.101C33.5774 119.769 33.5286 119.466 33.4309 119.193C33.3333 118.916 33.203 118.687 33.0403 118.504C32.8808 118.322 32.6936 118.167 32.4788 118.041C32.2672 117.914 32.0474 117.822 31.8196 117.767ZM36.9124 116.625H38.4065L40.7112 120.609L43.05 116.625H44.4709V123.563H43.2405V118.373L41.2678 121.576H40.1057L38.1428 118.373V123.563H36.9124V116.625ZM47.0588 116.625H48.2893V123.563H47.0588V116.625ZM6.72192 126.576C7.45109 126.576 8.14282 126.704 8.79712 126.961L8.97778 127.035L8.59204 128.089L8.40649 128.026C7.77498 127.814 7.20369 127.708 6.69263 127.708C6.28898 127.708 5.91463 127.775 5.56958 127.909C5.22778 128.039 4.94295 128.215 4.71509 128.436C4.49048 128.657 4.3147 128.911 4.18774 129.198C4.06405 129.484 4.0022 129.784 4.0022 130.096C4.0022 130.418 4.06893 130.726 4.20239 131.019C4.33911 131.309 4.52791 131.564 4.7688 131.786C5.01294 132.004 5.31893 132.178 5.68677 132.308C6.05461 132.435 6.45662 132.499 6.89282 132.499C7.42668 132.499 7.96053 132.404 8.49438 132.215L8.67505 132.152L9.07544 133.128L8.89478 133.207C8.1884 133.509 7.44295 133.661 6.65845 133.661C6.04972 133.661 5.49634 133.568 4.99829 133.382C4.5035 133.197 4.09497 132.943 3.77271 132.621C3.45044 132.295 3.20142 131.917 3.02563 131.488C2.85311 131.058 2.76685 130.596 2.76685 130.101C2.76685 129.6 2.85636 129.134 3.0354 128.705C3.21444 128.275 3.46997 127.902 3.802 127.586C4.13403 127.271 4.5507 127.023 5.052 126.844C5.5533 126.665 6.10994 126.576 6.72192 126.576ZM16.9567 128.612C16.9567 128.833 16.929 129.045 16.8737 129.247C16.8216 129.445 16.737 129.637 16.6198 129.823C16.5058 130.008 16.348 130.174 16.1461 130.321C15.9476 130.467 15.7116 130.581 15.4381 130.663L17.5329 133.563H15.9313L13.9879 130.873H12.8112L12.8112 133.563H11.5807L11.5807 126.625H14.5348C14.6813 126.625 14.8148 126.629 14.9352 126.639C15.0589 126.646 15.207 126.665 15.3795 126.698C15.5553 126.727 15.7099 126.768 15.8434 126.82C15.9801 126.872 16.1201 126.948 16.2633 127.049C16.4098 127.15 16.5303 127.269 16.6247 127.406C16.7223 127.539 16.8021 127.71 16.8639 127.918C16.9258 128.124 16.9567 128.355 16.9567 128.612ZM12.8112 127.752V129.74H13.944C14.1393 129.74 14.3118 129.733 14.4616 129.72C14.6113 129.707 14.7659 129.681 14.9254 129.642C15.0849 129.6 15.2152 129.543 15.3161 129.471C15.4202 129.4 15.5049 129.3 15.57 129.173C15.6383 129.046 15.6725 128.897 15.6725 128.724C15.6725 128.076 15.1728 127.752 14.1735 127.752H12.8112ZM20.253 133.563V126.625H25.1211V127.757H21.4883V129.422H24.8526V130.555H21.4883V132.43H25.1211V133.563H20.253ZM30.1411 126.625H31.4887L34.2329 133.563H32.9682L32.1918 131.747H29.3598L28.5834 133.563H27.392L30.1411 126.625ZM31.7622 130.619L30.7758 128.045L29.7846 130.619H31.7622ZM35.5809 126.625H41.8504V127.757H39.3309V133.563H38.1004V127.757H35.5809V126.625ZM44.1409 133.563V126.625H49.009V127.757H45.3762V129.422H48.7405V130.555H45.3762V132.43H49.009V133.563H44.1409Z" fill="#003366"/>
<path d="M30.4342 30.5734C30.6404 30.4163 30.9548 30.3719 31.1225 30.3082C31.19 30.2088 31.2594 30.0961 31.3153 29.9822C31.1591 29.8115 30.6424 30.3082 30.3647 30.475L30.4342 30.5734Z" fill="#003366"/>
<path d="M32.6152 28.2478C32.7638 27.9892 32.6923 28.0269 32.8234 28.1166L32.9315 27.9064L32.733 27.7888C32.621 28.0134 32.6267 28.0568 32.6152 28.2478Z" fill="#003366"/>
<path d="M18.6594 34.2258L18.5458 34.1621L18.5495 34.1987L18.6594 34.2258Z" fill="#003366"/>
<path d="M18.8116 28.7792L18.9099 28.7203L18.9775 28.6278L18.8714 28.5498C18.9333 28.4619 18.8926 28.4619 18.7808 28.4725C18.775 28.5399 18.7672 28.6133 18.7576 28.6807C18.7769 28.7155 18.7942 28.7456 18.8116 28.7792Z" fill="#003366"/>
<path d="M26.9283 31.6262L26.9649 31.9664C26.7219 31.9616 26.502 31.9432 26.2667 31.9183C26.2706 32.0697 26.2166 32.035 26.4422 32.0205C26.448 32.1477 26.8336 32.1767 27.2849 32.1187C27.7284 32.0695 28.2258 31.9181 28.4227 31.8643L28.598 31.8054C28.5729 31.7428 28.7445 31.6078 28.8968 31.4196C29.0569 31.2413 29.1996 31.0157 29.1688 30.8114C29.2691 30.7583 29.3693 30.7053 29.4639 30.6455C29.4119 30.5443 29.3981 30.5482 29.5527 30.5135C30.2584 30.3833 30.9527 29.7538 31.483 29.0961L31.8667 28.6179C32.0229 28.4115 32.1655 28.2139 32.3121 27.9979C32.5994 27.5746 32.8654 27.106 33.1239 26.6538L33.0119 26.619C33.0273 26.3653 33.0218 26.1081 32.9926 25.8583L32.8806 25.8438C32.896 25.381 33.0582 24.9855 33.1063 24.6144C33.008 24.2346 33.1874 24.3319 33.1352 23.982C33.0695 23.5327 32.7996 23.0053 32.4757 22.6698C32.1555 22.3236 31.8026 22.1424 31.5615 22.1771L31.4516 22.0441L31.3648 22.1203L31.2528 21.9979L31.3377 21.9187C31.1332 21.7046 31.413 21.5532 31.4438 21.3682L31.3223 21.2458C31.2432 21.3153 31.035 21.1543 30.8093 20.9836C30.5759 20.8081 30.3331 20.6162 30.1999 20.5681C29.6099 20.111 29.1799 19.8034 28.9409 19.2665L28.8811 19.3599C28.746 19.276 28.6844 19.2808 28.5687 19.3068C28.3083 19.1892 28.0479 19.0774 27.7856 18.9742L27.7277 19.0774C27.5503 18.9357 27.3651 18.7979 27.182 18.6629C26.6788 18.4082 26.0732 18.2338 25.5797 17.9224L25.0897 17.5858C25.1263 17.4738 25.1495 17.3553 25.1477 17.2377L25.6896 16.3371L25.942 15.5513C26.1677 15.1434 26.5707 14.9072 26.5785 14.3721C26.9082 13.6847 27.2284 12.9778 27.5254 12.2403L27.4134 12.1922C27.612 11.6955 27.9882 10.8413 28.1944 9.95522C28.4084 9.08266 28.4316 8.17536 28.1249 7.84847C28.1926 7.59383 28.2503 7.32694 28.3081 7.05503C28.3216 6.72721 28.3216 6.38194 28.2984 6.02626C28.2135 4.83071 27.932 3.71799 27.2938 2.54937C26.9274 2.07204 26.484 1.62851 26.0076 1.28733L25.9264 1.37016C25.7415 1.21879 25.6932 1.21879 25.5234 1.19855C25.6161 1.08191 25.6449 1.14543 25.4174 0.989413C25.3886 1.02322 25.1958 0.931465 24.9161 0.805168L24.6635 0.695215L24.5169 0.637266L24.4244 0.609407C24.2393 0.535114 24.0793 0.483109 23.8866 0.422375C23.5222 0.310565 23.1113 0.215099 22.7411 0.175538C22.3825 0.131148 22.0701 0.145635 21.9178 0.188911C21.1676 -0.00573562 20.2999 -0.0625694 19.4476 0.0780292C18.9038 0.27769 18.4082 0.550344 17.9744 0.856987C17.3457 1.23309 16.7112 1.72472 16.4567 2.22323C15.8089 2.88072 15.1899 3.66655 15.4386 4.27593L15.3594 4.39554C15.2244 4.3088 15.0682 4.41671 14.918 4.465C14.7733 4.78706 14.6403 5.10336 14.5149 5.42542C14.5939 5.46981 14.4551 5.80524 14.3125 6.16686C14.1678 6.53127 14.0212 6.91796 14.0251 7.06357C13.8632 7.44451 13.7204 7.83008 13.5855 8.20991C13.7648 8.27844 13.6511 8.50206 13.6743 8.67182C13.441 9.34491 13.0592 10.2377 13.1362 10.8616C13.0727 11.2568 13.0109 11.6426 12.9607 12.0311C12.9067 12.4217 12.8586 12.8131 12.8257 13.2027C12.791 13.5478 12.7601 13.894 12.7369 14.2412C12.6829 14.5276 12.6327 14.8255 12.6134 15.1167C12.2007 15.0357 11.8305 14.9962 11.5895 15.0194C11.1227 14.8708 10.5752 14.7436 10.1471 14.8303C9.4374 14.6297 8.52156 14.5043 7.89286 14.7088C7.59011 14.704 7.27771 14.704 6.96141 14.7242C6.51213 14.6895 5.95289 14.704 5.42839 14.8208C4.89998 14.9278 4.40259 15.1438 4.09781 15.4109C3.85673 15.5179 3.61379 15.6405 3.38813 15.7753C3.15485 15.917 2.9407 16.0684 2.73825 16.2342C2.00554 16.669 1.47324 17.4289 1.17625 18.2292C0.64023 19.1365 0.287155 20.2174 0.0501619 21.4275C-0.933286 26.5511 12.8699 25.3709 12.8699 25.3709C12.8699 25.3709 8.45191 32.5387 8.01414 37.7105C7.95433 37.7009 7.97551 37.7048 7.96009 37.832L8.00448 37.8368C7.83862 40.2019 8.52323 42.1265 10.8971 42.7223C11.3657 42.8447 11.8092 42.8477 12.22 42.7656C12.4592 42.7416 12.7022 42.703 12.9394 42.6296C13.2653 42.5266 13.5816 42.3607 13.8303 42.1118L13.7629 42.0203C14.0116 41.8197 14.2276 41.6586 14.3028 41.5468C14.3472 41.4842 14.3375 41.4398 14.2681 41.4118C14.4648 41.1757 14.6499 40.9142 14.8195 40.6299C15.157 40.8353 15.5407 40.8652 15.722 40.3002L15.7876 40.1815C15.8184 40.196 15.9997 39.363 16.2079 39.0959L16.316 38.8615L16.4181 38.9059C16.3507 39.0603 16.3795 39.0506 16.4181 39.1932L16.3641 39.3099L16.4664 39.3582C16.8135 38.6022 16.6746 38.0131 16.9253 37.3151C16.9987 37.0963 17.1547 37.236 17.2858 37.3112C17.4653 36.8187 17.9106 35.8978 17.4614 35.6192C17.5423 35.3261 17.7546 35.2479 17.9589 35.1014L18.0728 35.1324L18.1402 34.8837C17.9088 34.8239 18.0765 34.2888 18.1016 34.0834L18.2115 34.1133L18.2366 33.9898L18.5453 34.1623L18.4951 33.3949L17.9359 33.2638C18.0093 32.9523 18.2021 32.665 18.258 32.3035L18.3737 32.3295L18.3988 32.2023L18.5087 32.2255L18.4411 33.1222L18.555 33.1482L18.6051 32.8986L18.7188 32.9237C18.713 32.8312 18.7652 32.7811 18.632 32.7714C18.744 32.2363 18.8538 31.6945 18.9502 31.1477L18.8326 31.1284L19.0562 30.5248C18.8114 30.4815 19.2182 29.4815 19.2548 29.2724C18.9946 29.2271 18.9194 28.9938 18.8113 28.7797L18.5953 28.9214C18.3774 28.7603 18.1577 28.6002 17.9435 28.4335L18.0187 28.3408L18.2308 28.5066C18.4043 28.4429 18.5702 28.3311 18.7611 28.4728C18.7708 28.4728 18.7747 28.4728 18.7804 28.4728C18.7938 28.39 18.7997 28.306 18.8113 28.223C19.218 28.52 19.6288 28.8094 20.0588 29.0705C20.967 29.6325 21.939 30.1292 22.9958 30.4966L22.9206 30.7105C22.5272 30.671 22.1396 30.6084 21.754 30.5302C21.405 30.4067 21.0751 30.2755 20.7339 30.1242L20.6819 30.2263C21.459 30.6418 22.2844 31.0073 23.1811 31.2744C24.3193 31.6098 25.565 31.8056 26.9283 31.6262ZM26.3614 30.2947C26.2669 30.3043 26.1764 30.3082 26.0916 30.3082C26.0877 30.1192 26.0104 30.2022 25.8235 30.1964C25.8293 29.9717 26.3906 29.9823 26.5988 29.9236C26.6181 30.0991 26.5217 30.1106 26.3577 30.178L26.3614 30.2947ZM18.0867 27.3837C18.0886 27.3789 18.0982 27.3692 18.1021 27.3605L18.1118 27.3547C18.1118 27.3605 18.1118 27.3692 18.1118 27.3787L18.0867 27.3837ZM27.8385 31.7969C27.6805 31.6754 27.5475 31.5588 27.4125 31.4267L27.5724 31.3862L27.5549 31.2744C27.7171 31.2367 27.8712 31.1964 28.0332 31.1433C28.1008 31.3669 27.9466 31.5721 27.8385 31.7969ZM28.5655 29.5647L28.4459 29.6273C28.3746 29.475 28.4808 29.4267 28.5828 29.2956C28.6541 29.4327 28.6273 29.4267 28.5655 29.5647ZM30.4843 20.9488L30.5634 21.324L30.4843 21.408C30.2895 21.2371 30.4226 21.105 30.4843 20.9488ZM15.3814 39.6124C15.4046 39.5643 15.4257 39.5151 15.4469 39.4698C15.472 39.4659 15.501 39.4601 15.526 39.4601C15.4932 39.5151 15.4391 39.5682 15.3814 39.6124ZM16.8622 35.1898C16.8622 35.185 16.8622 35.185 16.8661 35.185C16.8661 35.185 16.8661 35.185 16.868 35.185C16.8661 35.185 16.8661 35.1898 16.8622 35.1898ZM18.1484 28.8456L18.133 28.9689L17.89 28.9351C17.8939 28.8907 17.8978 28.8523 17.9054 28.8127L18.1484 28.8456ZM18.1523 27.9641C18.0616 27.9554 18.0193 27.9004 17.9979 27.8291C18.0057 27.7451 18.0095 27.672 18.0173 27.5986C18.0423 27.6188 18.0732 27.6419 18.0982 27.6681L18.0732 27.7046C18.2583 27.7308 18.1755 27.7945 18.1523 27.9641ZM19.7336 28.3114L19.7837 27.9286L19.8859 27.7598C19.8974 27.7646 19.9052 27.7685 19.9167 27.78L19.8454 28.3257L19.7336 28.3114ZM23.1277 30.5385C23.6193 30.6996 24.2615 30.822 24.599 31.1277C24.0628 30.9926 23.4978 30.8548 23.1277 30.5385ZM26.5503 30.9724L26.7026 30.9579C26.7219 31.1719 26.4578 31.225 26.2572 31.3426C25.8351 31.2452 25.4378 31.113 25.0674 30.9637C25.5515 31.011 26.047 31.0216 26.5503 30.9724Z" fill="#003366"/>
<path d="M20.8407 30.8259C20.7018 30.6706 20.5745 30.5135 20.4473 30.363C20.3335 30.5588 20.6633 30.7102 20.8407 30.8259Z" fill="#003366"/>
<path d="M15.8653 41.3665C15.6937 41.4157 15.5202 41.4647 15.3408 41.5033C15.5009 41.6296 15.7151 41.4686 15.8653 41.3665Z" fill="#003366"/>
<path d="M14.8084 41.9664C14.6309 42.1621 15.0012 42.1369 15.1613 42.0984L14.9877 41.9434C14.8625 42.084 14.9242 42.0782 14.8084 41.9664Z" fill="#003366"/>
<path d="M13.1809 43.1907C12.6719 43.4058 12.24 43.4134 11.8349 43.2533L11.831 43.3708C11.7828 43.3708 11.7326 43.3708 11.6845 43.3651L11.6633 43.7113C12.0914 43.7219 12.4577 43.7113 12.8299 43.6775C12.9302 43.6101 13.0247 43.5406 13.1154 43.4683L13.0767 43.3565L13.2233 43.2977L13.1809 43.1907Z" fill="#003366"/>
<path d="M16.8911 38.6909C17.0687 38.7594 16.9684 38.8075 16.8932 38.9734C17.0724 39.0553 17.0841 38.822 17.1534 38.6562L17.0473 38.6127C17.1207 38.4424 16.9374 38.6476 16.8911 38.6909Z" fill="#003366"/>
<path d="M19.151 31.3187C19.3401 31.3534 19.2455 31.4121 19.2184 31.5915C19.4094 31.6302 19.3689 31.4063 19.4016 31.2308L19.2858 31.2163C19.3189 31.0362 19.1818 31.2656 19.151 31.3187Z" fill="#003366"/>
<path d="M19.9127 29.3836L19.9725 29.2921C19.7931 29.1734 19.6677 29.2265 19.5117 29.265C19.1819 29.051 19.6718 29.6275 19.7277 29.6756L19.8492 29.481L19.9649 29.5523C20.0459 29.4269 20.0633 29.481 19.9127 29.3836Z" fill="#003366"/>
<path d="M43.6029 34.7369C43.5643 34.8237 43.7032 34.7657 43.7457 34.7369L43.6666 34.7031C43.6434 34.7659 43.6588 34.7572 43.6029 34.7369Z" fill="#003366"/>
<path d="M43.2309 35.3665C43.094 35.5169 42.9512 35.5843 42.7893 35.5903L42.8104 35.6335L42.7584 35.6577L42.8104 35.7858C42.959 35.7221 43.0784 35.6577 43.2019 35.5901C43.2213 35.5496 43.2424 35.5121 43.2599 35.4781L43.227 35.4433L43.2657 35.3999L43.2309 35.3665Z" fill="#003366"/>
<path d="M48.4184 28.7395H48.3278C48.3317 28.8417 48.3432 28.8571 48.3761 28.9256C48.3761 28.8032 48.3606 28.8322 48.4242 28.8378C48.424 28.809 48.4184 28.7742 48.4184 28.7395Z" fill="#003366"/>
<path d="M43.9039 34.3999L43.7302 34.506C43.8054 34.5359 43.8614 34.4579 43.9039 34.3999Z" fill="#003366"/>
<path d="M43.9732 30.4614L43.9907 30.4161C43.9212 30.3832 43.877 30.4112 43.8191 30.4363C43.6956 30.3689 43.8886 30.5674 43.9079 30.5877L43.9233 30.5481C43.9562 30.5587 43.9387 30.5877 43.9426 30.636C44.016 30.6254 43.9909 30.5734 43.9812 30.5134L43.9909 30.524C44.0234 30.469 44.0293 30.4894 43.9732 30.4614Z" fill="#003366"/>
<path d="M48.071 28.1097L48.0305 28.1251C47.9744 27.9843 47.9898 27.8474 47.9744 27.7306C47.907 27.6324 47.9841 27.6324 47.936 27.536C47.824 27.2631 47.4557 27.0384 47.2861 27.1097L47.2378 27.077L47.2127 27.1097L47.1683 27.0731L47.1955 27.0384C47.1163 26.9756 47.2129 26.8956 47.2187 26.8233L47.1704 26.7886C47.1221 26.8523 46.8424 26.6333 46.7441 26.6188C46.5147 26.478 46.3489 26.3844 46.2544 26.1849L46.2272 26.2284C46.1769 26.2052 46.1557 26.2082 46.1136 26.2236L45.8184 26.1357L45.7973 26.1792L45.5891 26.0442C45.3963 25.9701 45.1725 25.9324 44.9815 25.8339L44.673 25.6478L44.5477 25.6103C44.5438 25.5804 44.5399 25.5496 44.5302 25.5215L44.6247 25.1463L44.6286 24.8427C44.6636 24.6777 44.7848 24.5553 44.7269 24.3665C44.7733 24.0869 44.806 23.8063 44.835 23.519L44.7925 23.5132C44.8058 23.3135 44.8521 22.9722 44.8272 22.6358C44.8138 22.3032 44.7211 21.9811 44.5688 21.8992C44.5649 21.8009 44.561 21.6995 44.5553 21.5955C44.5265 21.4759 44.4858 21.3535 44.4377 21.2263C44.2813 20.8078 44.0501 20.4271 43.6875 20.0712C43.4948 19.9382 43.2845 19.8264 43.0665 19.7627L43.0471 19.8032C42.9623 19.7685 42.9429 19.7752 42.8794 19.7887C42.9026 19.7338 42.922 19.7549 42.8215 19.7202C42.8157 19.7395 42.7308 19.7299 42.5882 19.7144L42.5342 19.7048H42.507H42.4454H42.4242L42.3817 19.7H42.3778H42.3642H42.318H42.2043C41.9133 19.7 41.5735 19.7752 41.4716 19.8465C41.1765 19.861 40.8583 19.9438 40.5632 20.0904C40.3936 20.2263 40.2471 20.3834 40.1256 20.5445C39.9443 20.7547 39.7805 21.0016 39.7476 21.2118C39.5935 21.5145 39.4603 21.8607 39.6301 22.0506L39.6184 22.1046C39.5509 22.0853 39.5064 22.1421 39.4544 22.1769C39.4389 22.3032 39.4313 22.4304 39.4235 22.5567C39.4909 22.5721 39.4003 23.0938 39.4389 23.1863C39.4272 23.3377 39.4178 23.4842 39.4139 23.6347C39.4909 23.6386 39.4755 23.7283 39.5026 23.786C39.4948 24.0503 39.4544 24.4003 39.5606 24.6142L39.6301 25.0384L39.7188 25.4638L39.7863 25.7559C39.6782 25.7511 39.5818 25.7559 39.5123 25.7734C39.3425 25.7368 39.1382 25.7163 38.9802 25.7713C38.7255 25.7221 38.3862 25.7106 38.1643 25.8139C38.0543 25.8293 37.9464 25.8389 37.8307 25.8582C37.5029 25.8534 37.0209 25.9615 36.8107 26.1851C36.7237 26.2334 36.6409 26.2825 36.5581 26.3356C36.4752 26.3896 36.3998 26.4522 36.3287 26.5159C36.0588 26.6963 35.8928 27.0241 35.8658 27.3461C35.7984 27.5746 35.7771 27.837 35.8079 28.1349C36.0085 29.9774 41.0802 29.4607 41.0802 29.4607C41.0802 29.4607 40.2992 32.4749 40.7522 34.2739C40.7272 34.2739 40.7368 34.2739 40.7446 34.3174L40.7619 34.3116C40.9645 35.083 41.406 35.6132 42.2487 35.5651C42.4801 35.5497 42.6692 35.4784 42.8272 35.356C43.0104 35.2479 43.184 35.1121 43.2747 34.9019L43.2321 34.8835C43.3168 34.7225 43.4075 34.6144 43.3168 34.6049C43.3534 34.5027 43.3863 34.3861 43.4095 34.2741C43.5618 34.3031 43.7122 34.2683 43.7005 34.0505L43.7083 34.0052C43.7238 34.0052 43.6755 33.6976 43.7238 33.5761L43.7334 33.4834L43.7797 33.4883C43.7739 33.5518 43.7817 33.547 43.8105 33.5856L43.8047 33.6348L43.8491 33.6387C43.882 33.3378 43.7546 33.1517 43.7663 32.8837C43.7663 32.797 43.8397 32.8308 43.9032 32.8404C43.9071 32.6504 43.9667 32.2794 43.7604 32.2359C43.7525 32.1241 43.8259 32.0739 43.8878 31.9967H43.9262L43.9244 31.8993C43.8337 31.9099 43.8298 31.7036 43.8124 31.6304L43.8606 31.6265V31.5821L43.9975 31.6014L43.8876 31.3488L43.6562 31.3633C43.6445 31.2515 43.687 31.128 43.6658 30.998L43.7141 30.9932L43.7083 30.9451L43.7525 30.9382L43.8298 31.2602L43.8761 31.2554L43.8664 31.162L43.9145 31.1581C43.8991 31.1243 43.9145 31.1052 43.8606 31.1137C43.8395 30.9161 43.8163 30.7136 43.7949 30.514L43.7447 30.5246L43.762 30.2865C43.7236 30.2952 43.7082 30.2372 43.6965 30.1535C43.762 30.193 43.8218 30.2268 43.8874 30.2605C44.2769 30.4659 44.6781 30.6462 45.131 30.7638L45.1099 30.8526C44.9633 30.8526 44.8147 30.841 44.6723 30.8266C44.543 30.7918 44.4119 30.7543 44.2904 30.7138L44.273 30.7543C44.564 30.8806 44.8727 30.9933 45.2178 31.0706C45.6518 31.1534 46.1435 31.1969 46.6969 31.0166L46.7335 31.1534C46.6353 31.1689 46.5387 31.1767 46.4425 31.1767C46.4559 31.2422 46.4289 31.2316 46.5196 31.2123C46.5292 31.2604 46.6969 31.2461 46.8764 31.1824C47.0576 31.1198 47.2486 31.008 47.3257 30.9646L47.3912 30.9163C47.3661 30.8758 47.5957 30.602 47.5032 30.4555L47.6015 30.3542C47.563 30.3204 47.563 30.3292 47.6169 30.2915C47.7383 30.2231 47.8407 30.0996 47.9198 29.9588C47.964 29.8953 48.0008 29.818 48.0335 29.7304C48.0528 29.6812 48.0623 29.663 48.0701 29.633L48.0875 29.5887L48.1145 29.5047C48.2419 29.1189 48.2283 28.6678 48.2456 28.3121L48.2014 28.3207C48.1655 28.2477 48.125 28.1734 48.071 28.1097ZM46.3741 30.5327C46.3433 30.5482 46.3067 30.553 46.2739 30.5587C46.2642 30.4854 46.2373 30.5182 46.1678 30.5298C46.1602 30.4401 46.3606 30.4113 46.4379 30.3717C46.4572 30.4401 46.4167 30.4545 46.3684 30.4893L46.3741 30.5327ZM43.0263 29.3979C43.0206 29.3871 43.0206 29.3834 43.0187 29.3738C43.0206 29.3487 43.0263 29.3207 43.0302 29.2956C43.0401 29.3545 43.0284 29.3429 43.0822 29.3342L43.0783 29.3584L43.0263 29.3979ZM46.858 26.7397L46.8966 26.8775L46.8678 26.9162C46.7945 26.8679 46.8388 26.8032 46.858 26.7397ZM43.4797 33.8544C43.4797 33.8341 43.4855 33.8148 43.4873 33.7955C43.4951 33.7906 43.5048 33.7858 43.5124 33.7858C43.5122 33.8051 43.4951 33.8284 43.4797 33.8544ZM43.5895 30.2512L43.4738 30.3485L43.2288 30.1962L43.25 30.1585L43.333 30.2086C43.3926 30.173 43.4526 30.1189 43.5297 30.1633C43.578 30.1527 43.5954 30.1479 43.5741 30.1875L43.6125 30.2116L43.5895 30.2512ZM43.1326 29.8752C43.1326 29.8608 43.1305 29.8463 43.1248 29.832L43.1634 29.8251C43.1809 29.8377 43.202 29.8522 43.2214 29.8608L43.1326 29.8752ZM45.1842 30.7768C45.3673 30.8221 45.6123 30.8462 45.7473 30.9512C45.541 30.9185 45.3289 30.8847 45.1842 30.7768ZM46.4011 30.9512C46.2274 30.9445 46.0714 30.9088 45.9228 30.8654C46.1041 30.8654 46.3008 30.8403 46.4936 30.7874L46.5552 30.7768C46.5785 30.8548 46.4761 30.8992 46.4011 30.9512ZM47.0797 31.0013C47.0103 30.9724 46.941 30.9339 46.8695 30.8992L46.941 30.8654L46.9198 30.8258C46.9815 30.7911 47.0411 30.7632 47.1011 30.7237C47.1492 30.8065 47.1069 30.8992 47.0797 31.0013ZM47.1165 30.0612C47.1069 30.0756 47.0953 30.0844 47.0836 30.0959C47.0374 30.0515 47.0682 30.0168 47.0857 29.9579C47.1338 30.0025 47.1223 30.0025 47.1165 30.0612Z" fill="#003366"/>
<path d="M43.9771 33.3177C43.981 33.2492 43.9364 33.338 43.925 33.3621C44.0021 33.3669 43.9693 33.392 43.9674 33.4594C44.0408 33.4633 44.0194 33.3861 44.0235 33.3177H43.9771Z" fill="#003366"/>
<path d="M47.9148 30.1635L47.9532 30.1877C48.0073 30.1047 48.1152 30.0469 48.1732 29.9986L48.1925 29.8424C48.1037 29.8116 47.9919 30.066 47.9148 30.1635Z" fill="#003366"/>
<path d="M44.0503 31.61L43.9983 31.6013L44 31.6158L44.0503 31.61Z" fill="#003366"/>
<path d="M44.3438 30.9824L44.1894 30.8223C44.1528 30.8993 44.2782 30.9447 44.3438 30.9824Z" fill="#003366"/>
<path d="M39.5824 43.5408C39.5516 43.1657 39.5245 42.8832 39.6095 42.6105L39.5612 42.6153C39.5495 42.5266 39.5263 42.5033 39.486 42.463C39.4455 42.3146 39.3956 42.167 39.3432 42.0147L39.3008 42.0253C39.2834 41.9038 39.2622 41.7766 39.239 41.654C39.1445 41.3483 38.9806 41.0264 38.8766 40.7092C38.8283 40.5316 38.7743 40.3533 38.7145 40.1817L38.564 39.905C38.5061 39.9349 38.3963 39.7246 38.3287 39.6765C38.1803 39.4258 38.0124 39.1394 37.8139 38.9928C37.6365 38.7335 37.4437 38.4904 37.2413 38.2571C37.0927 38.1154 36.9404 37.9737 36.7881 37.8368C36.5373 37.5698 36.2 37.1359 35.8278 37.0471C35.6618 36.9344 35.4922 36.8138 35.3225 36.7067C35.1796 36.642 35.0275 36.5785 34.8886 36.5206C34.7653 36.4522 34.665 36.3692 34.555 36.3007C33.8762 33.6531 32.3277 31.8115 32.3277 31.8115C32.4414 32.5086 32.5302 33.1865 32.5996 33.8488C32.5302 33.7504 32.4531 33.6646 32.3797 33.601C32.2949 33.4835 32.2102 33.362 32.1195 33.2394C32.023 33.1074 31.921 32.9723 31.8129 32.8451C31.7282 32.7324 31.6238 32.6252 31.5391 32.527L31.512 32.4941L31.4771 32.5182C31.5755 32.6648 31.7105 32.875 31.8166 33.0582C31.9342 33.2539 32.0441 33.4495 32.1444 33.6492C32.3257 33.9606 32.4955 34.2788 32.6554 34.6047C32.6843 34.9606 32.6979 35.3114 32.7074 35.6576C32.4453 35.5698 32.1173 35.4782 31.78 35.4147C31.6602 35.3945 31.5659 35.3839 31.4715 35.3703C31.346 35.3597 31.2613 35.3558 31.1686 35.3558C30.9873 35.3558 30.8428 35.3839 30.7637 35.4437L30.3991 35.3558C30.2487 35.3404 30.0906 35.3308 29.9461 35.3259C29.4236 35.3066 29.0031 35.3211 28.5173 35.3452C28.3033 35.3945 28.0795 35.4522 27.8635 35.5265L27.8732 35.5698C27.7825 35.5978 27.7747 35.6103 27.7225 35.6615C27.7071 35.5978 27.7379 35.6105 27.63 35.6432C27.6417 35.6779 27.3176 35.7994 26.9839 35.9951C26.6484 36.1849 26.3206 36.4619 26.2493 36.59C25.9505 36.7798 25.6728 37.0181 25.4239 37.2813C25.2948 37.4914 25.1886 37.7104 25.0981 37.9282C24.9553 38.2174 24.8184 38.5636 24.8147 38.8307C24.697 39.2607 24.6162 39.7679 24.8127 39.9818L24.8051 40.061C24.7393 40.0513 24.7048 40.1429 24.6622 40.2018C24.6719 40.3869 24.6795 40.5673 24.7027 40.7534C24.7664 40.7534 24.801 41.5229 24.8743 41.6588C24.8994 41.8797 24.938 42.1042 24.9863 42.3165C25.0616 42.3078 25.0751 42.44 25.1193 42.5217C25.2042 42.9027 25.3084 43.4242 25.509 43.7067L25.6343 44.0046C25.6864 44.1166 25.7424 44.234 25.8021 44.346C25.9274 44.5648 26.0664 44.7847 26.238 44.9804C26.3942 45.1597 26.5716 45.3207 26.7489 45.4624C27.0478 45.7256 27.4413 45.9397 27.7593 45.9639C27.9734 46.0324 28.1971 46.0766 28.417 46.1017C28.6696 46.1557 29.117 46.179 29.5258 46.1114C29.9424 46.0515 30.3144 45.9156 30.4899 45.8027C30.7561 45.7304 31.0529 45.6032 31.2247 45.4431C31.6065 45.2878 32.0365 45.0141 32.239 44.7401C32.3664 44.6274 32.4955 44.5202 32.6208 44.4036C33.0064 44.1162 33.4674 43.5897 33.5985 43.1954C33.6776 43.0787 33.7508 42.96 33.8203 42.8338C33.8877 42.7132 33.9553 42.5908 34.0112 42.4684C34.2523 42.0981 34.4085 41.6584 34.4971 41.2101C34.555 41.0403 34.605 40.865 34.6512 40.6837C34.7285 40.7725 34.8074 40.8544 34.8827 40.943L35.0234 40.9083L35.06 40.8793L35.0234 40.831C35.0584 40.802 35.0351 40.7963 34.983 40.7818C34.9059 40.6921 34.8286 40.7192 34.7536 40.7268L34.6648 40.6353L34.659 40.641C34.6745 40.5619 34.7016 40.4848 34.717 40.4009C34.7209 40.3912 34.7227 40.3769 34.7246 40.3671C35.3648 41.0101 35.8739 41.8009 36.2963 42.6233L36.2171 42.6638C36.1014 42.521 35.9818 42.3804 35.8681 42.2444C35.7775 42.1075 35.6811 41.9658 35.5808 41.8347L35.5422 41.854C35.7562 42.1906 35.9489 42.5464 36.1324 42.9108C36.3618 43.3794 36.5585 43.8441 36.74 44.3408L36.6107 44.3852L36.5624 44.1259C36.4968 44.1491 36.5104 44.1211 36.5431 44.2039C36.4448 44.2386 36.6646 44.7603 36.6876 44.8963L36.7069 44.9598C36.7589 44.9396 36.9094 45.1894 37.0713 45.1894L37.1138 45.3157C37.1564 45.3012 37.1543 45.2964 37.1543 45.3543C37.1293 45.7399 37.38 46.2616 37.434 46.6858L37.8854 49.8936L39.0559 46.7553C39.135 46.548 39.2219 46.3647 39.3335 46.2124L39.291 46.1979L39.3027 45.9635L39.2585 45.9539C39.2893 45.8073 39.3954 45.71 39.4647 45.6125C39.4858 45.491 39.538 45.5439 39.5766 45.437C39.6924 45.169 39.6634 44.6521 39.4955 44.5345L39.4994 44.4563H39.4529L39.455 44.3792H39.5033C39.5033 44.2472 39.6287 44.2914 39.6924 44.2384V44.1602C39.6153 44.155 39.6307 43.6777 39.5824 43.5408ZM30.2202 42.2537C30.1545 42.2585 30.0871 42.2652 30.0293 42.2652C29.9368 42.2652 29.854 42.245 29.7767 42.2045C29.6226 42.1265 29.4972 42.0108 29.3622 41.8949L29.3295 41.9227C29.1423 41.727 29.0806 41.542 29.0343 41.6152C28.9341 41.4744 28.8473 41.3221 28.7779 41.1562C28.9207 41.0897 28.9978 40.9664 28.8878 40.7339L28.8781 40.6741C28.8839 40.6741 28.8453 40.5806 28.8241 40.4688C28.8011 40.3568 28.8048 40.222 28.8358 40.1477C28.8455 40.1139 28.8512 40.0755 28.8666 40.0407L28.9092 40.0552C28.888 40.1237 28.8975 40.1189 28.9285 40.173C28.9227 40.1875 28.9209 40.2068 28.9151 40.2222L28.9614 40.2307C28.9885 40.0756 29.0096 39.9482 29.0481 39.8171C29.0906 39.6947 29.1601 39.5645 29.3007 39.4605C29.3895 39.3979 29.3952 39.4895 29.4222 39.5445C29.5938 39.4076 30.047 39.3284 30.0741 39.1182C30.2206 39.0864 30.3016 39.1442 30.4019 39.1934L30.4095 39.236L30.5293 39.2166C30.5195 39.124 30.7971 39.1 30.9034 39.0864V39.1345L30.9671 39.1297L30.9245 39.2647C31.0382 39.2261 31.1599 39.1934 31.2813 39.1635L31.2834 38.9291C31.4414 38.9291 31.6285 38.9832 31.804 38.988L31.8001 39.0315L31.8638 39.0363L31.858 39.0816C31.7886 39.0864 31.7115 39.0894 31.6457 39.0961C31.5629 39.1 31.478 39.1048 31.4104 39.1154L31.4046 39.1637H31.5399L31.53 39.2081C31.5822 39.1984 31.6091 39.2168 31.6034 39.1637C31.8714 39.1685 32.1242 39.1984 32.3807 39.2516L32.3885 39.2081C32.4154 39.2168 32.429 39.2265 32.4464 39.2313C32.0906 40.9664 31.356 42.1042 30.2202 42.2537ZM32.4533 39.144C32.465 39.0757 32.4572 39.0699 32.4784 39.0814C32.4765 39.0998 32.4726 39.124 32.4687 39.149L32.4533 39.144ZM28.6079 40.5431C28.6079 40.5142 28.604 40.4891 28.604 40.4603C28.6079 40.4545 28.6174 40.44 28.6233 40.4361C28.6233 40.469 28.6176 40.5036 28.6079 40.5431ZM37.6636 45.0035C37.6579 45.0334 37.6579 45.0575 37.6519 45.0824C37.6404 45.0718 37.6307 45.0622 37.6057 45.043L37.5863 44.9804C37.6213 44.9706 37.6406 44.9804 37.6636 45.0035ZM38.0416 39.392L38.1304 39.524C38.0648 39.5578 38.034 39.5038 37.9606 39.4401L38.0416 39.392ZM36.5472 43.3711C36.4681 43.1369 36.3525 42.9082 36.3256 42.6826C36.4354 42.9025 36.5723 43.1753 36.5472 43.3711ZM36.7169 44.6874L36.8501 44.5061L36.8694 44.5696L36.9136 44.5551L36.9773 44.7403C36.8923 44.7702 36.8094 44.7161 36.7169 44.6874ZM36.7767 44.0536C36.7593 43.8724 36.7381 43.6931 36.7073 43.5176C36.7977 43.7221 36.8789 43.9216 36.9541 44.1261L36.9771 44.1898C36.8962 44.2186 36.8499 44.1164 36.7767 44.0536ZM37.2375 43.966L37.1969 43.9738L37.1449 43.8542C37.2182 43.8282 37.1757 43.7992 37.1391 43.7113C37.2318 43.6775 37.3263 43.9552 37.3744 44.0585C37.3089 44.0826 37.2955 44.0336 37.2375 43.966ZM39.4552 43.9255L39.4147 43.9216C39.4089 43.7992 39.486 43.7992 39.5438 43.7702L39.4552 43.9255Z" fill="#003366"/>
<path d="M29.3059 41.4647C29.3733 41.5514 29.383 41.401 29.3908 41.3423L29.3137 41.3906C29.36 41.455 29.3618 41.4299 29.3059 41.4647Z" fill="#003366"/>
<path d="M32.3337 39.4323L32.3491 39.3831C32.4282 39.4033 32.3259 39.3426 32.3029 39.3281C32.2854 39.4033 32.2566 39.3686 32.1775 39.3541C32.166 39.4323 32.2585 39.4169 32.3337 39.4323Z" fill="#003366"/>
<path d="M30.9083 39.3136L30.9237 39.2644C30.9198 39.2644 30.9141 39.2644 30.9062 39.2702L30.9083 39.3136Z" fill="#003366"/>
<path d="M39.2295 46.745C39.2624 46.6465 39.2392 46.6668 39.2953 46.6861L39.3224 46.6127L39.2354 46.5837C39.2065 46.661 39.2141 46.6812 39.2295 46.745Z" fill="#003366"/>
<path d="M29.254 40.9778C29.2328 41.0452 29.2115 41.1119 29.196 41.1869C29.2694 41.1524 29.254 41.0493 29.254 40.9778Z" fill="#003366"/>
<path d="M30.357 41.864C30.2877 41.8823 30.224 41.8881 30.1603 41.8881C30.0966 41.8823 30.0579 41.8745 29.9751 41.8591L29.9424 41.8679C29.95 41.8747 29.9443 41.8796 29.9443 41.8796C29.9424 41.8883 29.9309 41.895 29.9231 41.9037L29.9155 41.9481C29.9038 41.9433 29.8943 41.9433 29.8846 41.9318L29.8672 41.9761C29.896 41.9916 29.9367 41.9964 29.9424 42.0003C29.9905 42.007 30.0466 42.0109 30.0812 42.0148C30.1603 42.0254 30.2489 42.0437 30.3376 42.0592L30.328 42.0148C30.351 42.0109 30.3705 42.007 30.3917 42.0003L30.357 41.864Z" fill="#003366"/>
<path d="M29.094 39.9674C29.1653 40.006 29.1228 40.0118 29.1016 40.0695C29.1768 40.0955 29.1653 40.0203 29.1961 39.9713L29.1575 39.9529C29.1865 39.894 29.1111 39.9529 29.094 39.9674Z" fill="#003366"/>
<path d="M37.0235 45.6726C37.0524 45.7653 37.012 45.8703 37.0042 45.9397L37.0853 46.0517C37.1758 46.0324 37.0929 45.7741 37.0699 45.6572L37.0235 45.6726Z" fill="#003366"/>
<path d="M32.9294 31.7139L33.1109 31.6937C33.0914 31.577 32.9757 31.6754 32.9294 31.7139Z" fill="#003366"/>
<path d="M35.3747 41.3566L35.4173 41.3327C35.3556 41.2508 35.2958 41.2508 35.2265 41.2361C35.1166 41.0895 35.2516 41.4116 35.265 41.4337L35.3383 41.3854L35.3749 41.4337C35.4267 41.4049 35.4267 41.43 35.3747 41.3566Z" fill="#003366"/>
<path d="M35.4826 42.108L35.4306 41.8542C35.3552 41.8986 35.446 42.0201 35.4826 42.108Z" fill="#003366"/>
<path d="M28.2935 58.5039L28.2974 58.3911C28.195 58.3815 28.089 58.3728 27.9868 58.3672L28.1101 58.4896L28.2935 58.5039Z" fill="#003366"/>
<path d="M28.0448 58.8286C28.0448 58.6975 28.0274 58.6685 27.985 58.5972V58.7129C27.9003 58.7032 28.0179 58.8017 28.0448 58.8286Z" fill="#003366"/>
<path d="M28.0429 59.1777C28.0429 58.9829 27.9465 59.0523 27.8636 59.0486L27.9253 59.2839C27.9948 59.2838 27.989 59.2492 28.0429 59.1777Z" fill="#003366"/>
<path d="M29.7649 58.7168H29.7727H29.7766H29.7805L29.8035 58.7246L29.821 58.7322C29.8307 58.738 29.8461 58.7476 29.8672 58.7515C29.8847 58.6549 29.8672 58.6241 29.8364 58.6105H29.8247L29.7881 58.605L29.7591 58.6011C29.7419 58.6011 29.7129 58.6011 29.6917 58.5972L29.6784 58.7129C29.5935 58.6936 29.6977 58.8054 29.717 58.8403C29.738 58.7437 29.7456 58.7168 29.7649 58.7168Z" fill="#003366"/>
<path d="M35.1121 62.2962L35.1547 62.3347L35.39 62.0823C35.2858 61.9799 35.2262 61.8527 35.1797 61.7119L35.0217 61.7218L34.9502 61.8105L34.906 61.7699L34.8345 61.8586C34.9792 61.9994 35.0429 62.146 35.0351 62.3852L35.1121 62.2962Z" fill="#003366"/>
<path d="M34.1326 60.676L34.0806 61.0733C34.1926 60.9076 34.15 60.7802 34.1326 60.676Z" fill="#003366"/>
<path d="M27.5549 58.343H27.4296C27.4916 58.4788 27.4916 58.3727 27.5549 58.343Z" fill="#003366"/>
<path d="M33.0855 60.2693C33.1761 60.0977 33.0546 60.1131 32.9872 60.0745L32.9389 60.1805C32.8639 60.1398 32.9293 60.2788 32.9389 60.3135C33.018 60.14 33.0162 60.2249 33.0855 60.2693Z" fill="#003366"/>
<path d="M27.5262 59.2647C27.5184 59.1336 27.4972 59.1083 27.4567 59.0352L27.4606 59.149C27.3776 59.149 27.4972 59.2415 27.5262 59.2647Z" fill="#003366"/>
<path d="M25.2062 58.396L25.511 58.5858C25.4627 58.3615 25.3083 58.4105 25.2062 58.396Z" fill="#003366"/>
<path d="M36.7072 65.0014L36.6722 65.0225C36.1422 64.1104 35.4459 63.291 34.6205 62.5928C34.47 62.398 34.3775 62.1398 34.1537 62.0181L34.0824 62.1106C33.9281 61.9756 33.8761 61.781 33.7797 61.9698C33.6677 61.8928 33.554 61.8233 33.4422 61.7559C33.6448 61.4184 33.7564 61.0964 33.4866 61.0694L33.4422 61.0347C33.4576 61.0037 33.0509 61.0135 32.966 60.8649L32.8755 60.8109L32.9294 60.7067C32.9911 60.7416 32.9911 60.7221 33.0759 60.6625L33.1222 60.6876L33.1762 60.591C32.8698 60.4002 32.5301 60.6064 32.2448 60.458C32.156 60.4136 32.2641 60.2477 32.3336 60.1129C32.1291 60.0085 31.7665 59.6733 31.5392 60.1283C31.4157 60.078 31.4177 59.8852 31.3848 59.6924L31.4177 59.5845L31.3096 59.542C31.2403 59.7732 31.0147 59.6538 30.9201 59.6441L30.953 59.5362L30.899 59.5169L31.0243 59.2104L30.6484 59.3183L30.5153 59.8778C30.3784 59.8313 30.2742 59.6694 30.1046 59.6385L30.1276 59.5267L30.068 59.5132L30.0892 59.3956H30.5114L30.5344 59.2836L30.4226 59.2489L30.4476 59.1369C30.4051 59.1523 30.3839 59.1079 30.3706 59.2333C30.251 59.1985 30.1141 59.1659 29.9848 59.1332L29.821 59.0945L29.7766 59.0828L29.7591 59.0789L29.7168 59.0672L29.6262 59.0479L29.6107 59.1655L29.3388 58.9959C29.3099 59.2407 28.8509 58.9226 28.7506 58.9053C28.7313 59.1984 28.5866 59.2775 28.4904 59.4491C27.2523 59.3026 25.9719 59.372 24.7223 59.669L24.651 59.4491C24.7918 59.3315 24.9229 59.2101 25.0655 59.0981C25.21 59.0384 25.3662 58.9824 25.5148 58.9322L25.4936 58.8145C25.1099 58.8782 24.7241 58.9554 24.3425 59.0516C23.8603 59.179 23.3917 59.3313 22.9155 59.5221L22.7727 59.2097L23.06 59.2194C22.9963 59.0825 23.0349 59.1074 22.9539 59.1365C22.8479 58.8975 22.3349 59.179 22.1884 59.2099L22.1304 59.2407C22.1863 59.3564 22.0089 59.6187 22.1633 59.9851L22.0552 60.0447C22.1111 60.1393 22.1208 60.1393 22.0455 60.122C21.6945 60.0392 21.4283 60.2511 21.1642 60.4634C20.8962 60.6716 20.6377 60.8722 20.2174 60.7795L20.2926 60.8722L20.2098 61.0765L20.2868 61.1654C20.1886 61.2425 19.959 61.1461 19.801 61.1114C19.72 61.1809 19.6505 61.0477 19.533 61.0689C19.2302 61.1114 19.0354 61.551 19.2727 61.8865L19.2245 61.9366L19.3093 62.0139L19.2631 62.0601L19.1782 61.9828C19.0972 62.0677 18.8851 61.8363 18.7423 61.7689L18.696 61.8229C18.8444 61.9483 18.509 62.2221 18.5033 62.3686C18.2834 62.6193 18.1117 62.8025 17.7029 62.8082L17.7936 62.8719C17.7471 62.9356 17.7626 62.9741 17.8109 63.0473C17.7568 63.1823 17.7126 63.3134 17.6662 63.4464L17.7626 63.5101C17.6777 63.5835 17.5833 63.6606 17.4907 63.7395C17.3499 63.9806 17.2862 64.3045 17.0858 64.5398C16.9565 64.6555 16.8293 64.7829 16.702 64.9024L16.5824 65.1609C16.7329 65.2226 16.6422 65.4075 16.6905 65.5041C16.5902 65.7394 16.4283 66.0017 16.5323 66.2446C16.4803 66.3719 16.4281 66.503 16.38 66.636C16.3259 66.7651 16.2815 66.8886 16.2372 67.0427L16.2178 67.201C16.2082 67.255 16.2082 67.2743 16.2082 67.313L16.185 67.5752C16.0711 67.8837 15.6855 68.3505 16.0152 68.684C15.9977 68.8635 15.9766 69.0484 15.9573 69.2336L16.1019 69.6578C16.0923 69.9009 15.8512 70.1246 16.0962 70.3597C16.1116 70.7494 16.156 71.1504 16.2216 71.5398L16.3296 71.5148C16.3701 71.7828 16.4067 72.2534 16.5475 72.6505C16.6903 73.0556 16.9218 73.3832 17.2707 73.3678L17.2824 73.7285C17.3345 73.8498 17.3827 73.9809 17.4386 74.1044C17.6238 74.5229 17.7782 74.8488 17.8822 75.2576C18.0057 75.3964 18.129 75.5372 18.2544 75.6662L18.3469 75.6007C18.3933 75.6662 18.4182 75.6586 18.5166 75.6547C18.3874 75.7415 18.4085 75.6973 18.4607 75.776C18.5302 75.724 18.7191 75.917 18.9369 76.1116C19.1509 76.3104 19.4016 76.5108 19.5521 76.507C19.6293 76.7847 19.7159 77.0624 19.8162 77.34C19.9648 77.448 20.115 77.5503 20.2655 77.6448C20.439 77.8144 20.6221 78.0421 20.871 78.0575C21.1332 78.2869 21.4244 78.6091 21.8449 78.262L21.9008 78.3007C21.8063 78.4394 21.8256 78.5454 21.8121 78.6671C21.9567 78.7249 22.1033 78.7847 22.248 78.833C22.3347 78.6864 22.8592 79.0856 23.0193 79.0469C23.1813 79.1452 23.349 79.2418 23.5227 79.3303C23.6036 79.1567 23.6865 79.2416 23.7849 79.2068C24.0837 79.3651 24.4695 79.6621 24.8051 79.5503C24.9922 79.5831 25.1771 79.614 25.3662 79.639C25.559 79.6622 25.7423 79.6873 25.9333 79.7007C26.103 79.7124 26.2553 79.72 26.4403 79.72C26.5118 79.7393 26.5926 79.7586 26.6526 79.7741C26.7122 79.7819 26.7722 79.7819 26.83 79.7819C26.9995 79.7895 27.1095 79.7586 27.2464 79.6661C27.4083 79.6565 27.5723 79.6468 27.7343 79.6312C27.9252 79.6622 28.253 79.6662 28.5693 79.614C28.8912 79.5579 29.1999 79.4539 29.3464 79.3014C29.5624 79.3071 29.8189 79.2572 29.9733 79.0566C30.2972 79.0469 30.6906 78.9446 30.891 78.6324C31.0087 78.5744 31.1341 78.5206 31.2535 78.457C31.6278 78.3991 32.1387 78.1543 32.3044 77.7455C32.3971 77.6779 32.4838 77.6103 32.5707 77.541C32.6632 77.4715 32.75 77.4041 32.8309 77.3269C33.1666 77.2093 33.4364 76.9413 33.6602 76.6307C35.8469 75.2886 37.4185 73.0961 37.7772 70.4619C38.0415 68.5355 37.621 66.6688 36.6975 65.0703C36.7534 65.0417 36.7322 65.0495 36.7072 65.0014ZM16.7812 65.8942L16.8294 65.7688C16.9953 65.8208 16.9645 65.8689 16.9992 65.9673L16.7812 65.8942ZM32.9777 61.4125C32.9988 61.4281 33.0085 61.4665 33.0182 61.507C32.9988 61.4973 32.9816 61.4877 32.9602 61.4782C32.966 61.4531 32.9717 61.432 32.9777 61.4125ZM31.2169 60.7455C31.2169 60.7455 31.2169 60.7455 31.213 60.7455C31.2169 60.7416 31.2169 60.7416 31.2169 60.7416C31.2169 60.7416 31.2169 60.7416 31.2169 60.7455ZM28.6174 60.0453L28.6041 60.2884C28.5866 60.2884 28.5693 60.2884 28.55 60.2884L28.5654 60.034L28.6174 60.0453ZM27.9793 60.0936L28.0796 60.2132C28.0835 60.0186 28.1145 60.1014 28.1934 60.109C28.1856 60.1996 28.1663 60.2479 28.1373 60.2788C28.1007 60.2788 28.0545 60.2788 28.0159 60.2788C27.9793 60.2576 27.9466 60.2344 27.9291 60.2054C27.9928 60.2054 27.9793 60.244 27.9793 60.0936ZM24.6643 59.6829C24.4504 59.7312 24.2017 59.8352 23.9643 59.6385C24.1959 59.6268 24.4214 59.5459 24.6643 59.6829ZM23.7021 61.0694C23.6287 60.9075 23.6634 60.892 23.7099 60.8187L23.6579 60.7106L23.7621 60.6721C23.8393 60.8475 23.8393 60.7704 23.9144 60.7416C24.005 60.9556 23.7754 61.0078 23.7021 61.0694ZM23.2933 59.7504C23.4881 59.7946 23.6848 59.8506 23.8776 59.9066C23.6867 59.9664 23.5035 60.034 23.3144 60.1014L23.2663 60.1285C23.1718 59.9277 23.2624 59.87 23.2933 59.7504ZM22.898 61.1601C22.979 61.3066 22.9346 61.3259 22.9135 61.4088C22.8362 61.2776 22.8536 61.2854 22.8477 61.1851L22.898 61.1601ZM22.7881 59.6963L22.7301 59.7234L22.7881 59.8313L22.6165 59.8971C22.5104 59.6926 22.5065 59.5325 22.4718 59.3378L22.7881 59.6963ZM18.9891 62.3421L19.0798 62.4191C19.0045 62.4964 18.858 62.369 18.7269 62.2917L18.9891 62.3421Z" fill="#003366"/>
<path d="M21.5927 59.8971L21.5347 59.8005C21.4498 59.8508 21.2706 59.7563 21.1837 59.7312L21.1296 59.8971C21.261 60.0976 21.477 59.9318 21.5927 59.8971Z" fill="#003366"/>
<path d="M26.0355 59.0989L26.0585 59.2108C26.1492 59.1991 26.1627 59.0834 26.1975 58.9677C26.3691 58.9484 26.016 58.7673 25.9794 58.7595L26.022 58.9831L25.9583 58.9909C25.9835 59.1375 25.9583 59.1029 26.0355 59.0989Z" fill="#003366"/>
<path d="M27.5646 58.8055L27.6803 58.8096V58.6939L27.3177 58.6841L27.5664 58.9233L27.5646 58.8055Z" fill="#003366"/>
<path d="M20.5223 60.4256C20.4489 60.4739 20.4894 60.4873 20.3988 60.3716L20.3429 60.4045L20.4876 60.5915C20.5435 60.5471 20.5279 60.5163 20.5223 60.4256Z" fill="#003366"/>
<path d="M31.0742 59.0947L31.024 59.2104L31.0434 59.1987L31.0742 59.0947Z" fill="#003366"/>
<path d="M26.5717 59.0486L26.5834 59.1604H26.6413C26.653 59.2782 26.6684 59.2416 26.703 59.1565C26.8033 59.1526 26.8187 58.9674 26.8438 58.8096L26.9652 58.8057L26.9576 58.6899L26.593 58.7035L26.5717 59.0486Z" fill="#003366"/>
<path d="M34.3931 61.0251L34.262 61.2161C34.3237 61.2586 34.3313 61.2161 34.2408 61.3414C34.3237 61.4091 34.3835 61.1371 34.3931 61.0251Z" fill="#003366"/>
<path d="M27.2756 58.9136L27.2639 58.6841H27.0769L27.1521 58.9194L27.2756 58.9136Z" fill="#003366"/>
<path d="M39.6381 53.574L39.5667 53.4766C39.5301 53.4969 39.3912 53.3851 39.3275 53.3503L39.3392 53.4679C39.4858 53.6637 39.5764 53.574 39.6381 53.574Z" fill="#003366"/>
<path d="M44.5441 54.2139C44.6347 54.0423 44.5693 54.0857 44.5441 54.0664L44.4921 54.1686C44.467 54.1444 44.4633 54.2583 44.4536 54.2806C44.5441 54.1156 44.5173 54.189 44.5441 54.2139Z" fill="#003366"/>
<path d="M43.2945 53.2578H43.2984L43.3391 53.2626L43.3446 53.2722C43.3446 53.2771 43.3504 53.2819 43.3543 53.2867C43.3678 53.1894 43.3678 53.1604 43.36 53.1508H43.3582L43.3119 53.1411H43.3062C43.3062 53.1411 43.3062 53.1411 43.2984 53.1411C43.2908 53.1459 43.2791 53.1459 43.2676 53.1459L43.2501 53.2578C43.2213 53.2481 43.2599 53.3504 43.2637 53.3792C43.2752 53.2865 43.2848 53.2578 43.2945 53.2578Z" fill="#003366"/>
<path d="M42.6637 53.1122V52.9935C42.6195 52.9848 42.5712 52.979 42.5287 52.9751L42.5866 53.0975L42.6637 53.1122Z" fill="#003366"/>
<path d="M42.5348 53.2039V53.3225C42.5 53.3168 42.5502 53.4093 42.5619 53.4382C42.5598 53.3071 42.5502 53.2772 42.5348 53.2039Z" fill="#003366"/>
<path d="M44.9818 55.3789L45.0609 55.2892L45.0685 55.3094L45.3133 55.0656C45.2825 55.0164 45.2864 54.945 45.3037 54.8525L45.2054 54.8997L45.1263 54.9885L45.1109 54.9692L45.0375 55.0568C45.0801 55.1148 45.0684 55.2084 44.9818 55.3789Z" fill="#003366"/>
<path d="M39.0942 53.7497C39.0556 53.77 39.0922 53.7951 38.99 53.6821L38.9629 53.7014L39.117 53.8673C39.1443 53.8537 39.131 53.8248 39.0942 53.7497Z" fill="#003366"/>
<path d="M44.8486 54.8227C44.8737 54.8565 45.0069 54.6231 45.0455 54.5315L44.9103 54.7146C44.9278 54.736 44.945 54.7013 44.8486 54.8227Z" fill="#003366"/>
<path d="M44.8447 54.6518C44.9643 54.4908 44.9816 54.3926 44.997 54.321L44.8447 54.6518Z" fill="#003366"/>
<path d="M42.2493 53.5113L42.2242 53.2817L42.1492 53.2771L42.1971 53.5055L42.2493 53.5113Z" fill="#003366"/>
<path d="M41.6978 53.4967C41.7287 53.6432 41.7133 53.6085 41.748 53.6085L41.7712 53.7205C41.8078 53.7205 41.802 53.6029 41.7983 53.4909C41.8754 53.4909 41.6941 53.2818 41.6787 53.2664L41.7211 53.4968H41.6978V53.4967Z" fill="#003366"/>
<path d="M41.256 52.8469L41.4315 53.0572C41.3756 52.8393 41.308 52.874 41.256 52.8469Z" fill="#003366"/>
<path d="M42.361 53.4089L42.413 53.4137L42.4054 53.3008L42.2531 53.2815L42.3688 53.5207L42.361 53.4089Z" fill="#003366"/>
<path d="M42.3687 53.8613C42.3609 53.735 42.3512 53.706 42.3321 53.6375L42.3379 53.7494C42.3089 53.7444 42.3572 53.838 42.3687 53.8613Z" fill="#003366"/>
<path d="M42.3358 52.9504L42.2817 52.9456C42.3185 53.0776 42.3109 52.9755 42.3358 52.9504Z" fill="#003366"/>
<path d="M42.5713 53.7841C42.5674 53.5895 42.5288 53.6636 42.4961 53.6569L42.529 53.8911C42.5539 53.8961 42.5501 53.8614 42.5713 53.7841Z" fill="#003366"/>
<path d="M41.9658 53.6085L41.987 53.7205H42.0063C42.0256 53.8332 42.0256 53.7985 42.0293 53.7205C42.0758 53.7272 42.0603 53.5362 42.0583 53.3849H42.1066L42.0949 53.2721L41.9366 53.2664L41.9658 53.6085Z" fill="#003366"/>
<path d="M43.8265 53.4861L43.7881 53.6027C43.792 53.6027 43.7957 53.6027 43.7957 53.5988L43.8265 53.4861Z" fill="#003366"/>
<path d="M46.0289 62.5159L45.9827 62.6353L45.9962 62.6275L46.0289 62.5159Z" fill="#003366"/>
<path d="M46.7307 63.2911C46.8368 63.125 46.7636 63.1637 46.7384 63.1445L46.6787 63.2428C46.6537 63.2177 46.6438 63.3256 46.6381 63.3564C46.7384 63.1945 46.7057 63.266 46.7307 63.2911Z" fill="#003366"/>
<path d="M47.2034 63.6575L47.0433 63.8233C47.0588 63.8465 47.0838 63.8116 46.9778 63.9236C47.0027 63.9582 47.1492 63.7405 47.2034 63.6575Z" fill="#003366"/>
<path d="M46.9891 63.7536C47.1223 63.6032 47.1492 63.5107 47.1723 63.4375C47.1145 63.5454 47.0528 63.6457 46.9891 63.7536Z" fill="#003366"/>
<path d="M47.1956 65.5106L47.1551 65.5239C47.0374 65.227 46.8678 64.9532 46.6672 64.7219C46.6633 64.6313 46.7231 64.4751 46.644 64.4365L46.5612 64.5193C46.5303 64.4614 46.5823 64.3399 46.4492 64.4963C46.4165 64.471 46.3896 64.4402 46.3567 64.4172C46.6056 64.1163 46.7926 63.8423 46.6576 63.8752L46.6459 63.8579C46.6633 63.8327 46.449 63.9235 46.4607 63.8173L46.4377 63.7885L46.4973 63.6919C46.5147 63.7112 46.5225 63.6919 46.5879 63.6224L46.5996 63.638L46.667 63.5453C46.5688 63.4411 46.3296 63.6843 46.2486 63.607C46.2196 63.584 46.318 63.4179 46.3894 63.2909C46.3219 63.2329 46.2332 62.9746 46.0211 63.4335C45.9785 63.4027 46.0289 63.2177 46.056 63.0517L46.0944 62.9399L46.056 62.9166C45.973 63.1403 45.8996 63.0613 45.863 63.0671L45.8901 62.9553L45.8747 62.9436L45.9828 62.6351L45.7898 62.7779L45.6433 63.3351C45.5952 63.31 45.5623 63.1538 45.5006 63.1443L45.52 63.0323L45.5083 63.0227L45.5237 62.909C45.5623 62.8897 45.649 62.8819 45.7127 62.8665L45.7399 62.7545L45.6858 62.7352L45.707 62.6215C45.6858 62.6369 45.684 62.5925 45.6568 62.7198L45.574 62.6848L45.5237 62.6655L45.4811 62.6425L45.4678 62.6367L45.462 62.6347H45.46V62.6269H45.4234L45.4176 62.6213L45.3792 62.6135L45.3658 62.7255L45.2597 62.5732C45.2365 62.8162 45.0612 62.5346 45.0129 62.5153C45.0033 62.816 44.9455 62.9008 44.9106 63.0706C44.4383 62.9703 43.9214 62.9894 43.4296 63.1091L43.3293 62.9066C43.3582 62.8121 43.393 62.7159 43.4238 62.6193C43.4799 62.5788 43.5358 62.5381 43.5993 62.496L43.5549 62.3936C43.3872 62.4226 43.2213 62.461 43.0497 62.5151C42.8434 62.5788 42.6447 62.6579 42.4422 62.7484L42.2453 62.4727L42.413 62.5153C42.3321 62.3879 42.3571 62.4187 42.3263 62.4324C42.2838 62.3687 42.2394 62.3418 42.1894 62.3301C42.1894 62.3262 42.1933 62.3262 42.1952 62.3204C42.2704 62.2993 42.336 62.2857 42.4054 62.2625C42.5674 62.3108 42.9684 62.222 43.065 61.9211C43.1595 61.9365 43.2598 61.896 43.2982 61.7166C43.4294 61.7244 43.5837 61.6628 43.6125 61.3773C43.6491 61.3407 43.6937 61.3002 43.7303 61.2616C43.8729 61.2577 44.0505 61.115 44.0155 60.7794C44.0367 60.7352 44.0618 60.6966 44.0772 60.6522L44.1333 60.5266C44.2548 60.5016 44.301 60.3454 44.3069 60.1602C44.9568 59.7109 45.4252 59.009 45.5411 58.1701C45.624 57.5618 45.5103 56.9667 45.2518 56.4597C45.3077 56.4309 45.2867 56.4404 45.2826 56.4268L45.2421 56.4452C45.0898 56.1473 44.8816 55.8802 44.6385 55.6557C44.6231 55.563 44.6596 55.4021 44.5748 55.3713L44.4977 55.461C44.463 55.407 44.5016 55.2662 44.384 55.4408C44.3512 55.4175 44.3146 55.3915 44.2817 55.3713C44.4958 55.0453 44.6596 54.7541 44.5267 54.7976L44.5074 54.7831C44.5267 54.7541 44.3146 54.8661 44.3166 54.7591L44.2915 54.7281L44.3474 54.626C44.3668 54.6462 44.3725 54.626 44.4284 54.5595L44.4459 54.568L44.5018 54.4698C44.3939 54.3782 44.1779 54.6365 44.0891 54.5632C44.0583 54.5439 44.147 54.3685 44.2126 54.2315C44.1392 54.1822 44.0371 53.9354 43.8461 54.3973C43.8055 54.3732 43.8461 54.1882 43.8655 54.0175L43.9002 53.9055L43.8617 53.8804C43.7884 54.1109 43.7152 54.0348 43.6745 54.0415L43.7035 53.9295L43.6842 53.9189L43.7884 53.6016C43.7247 53.6557 43.6706 53.7047 43.5993 53.754L43.4682 54.3199C43.4219 54.29 43.387 54.1386 43.3293 54.1289L43.3486 54.0171L43.3332 54.0123L43.3504 53.8947C43.387 53.8745 43.4643 53.86 43.5259 53.8464L43.551 53.7337L43.497 53.7135L43.5222 53.6016C43.497 53.6219 43.4951 53.5727 43.4739 53.7047C43.4082 53.6806 43.3928 53.6652 43.3504 53.6507L43.3062 53.6275L43.2927 53.6217L43.2908 53.6178H43.2851L43.2485 53.613L43.2446 53.6072L43.208 53.5976L43.1907 53.7133L43.0884 53.5638C43.0653 53.8067 42.8956 53.5155 42.8551 53.4952C42.8397 53.797 42.7817 53.8741 42.7414 54.0515C42.2823 53.9349 41.7773 53.9088 41.2643 53.9859L41.1891 53.7681C41.2257 53.6802 41.2643 53.5877 41.3087 53.4952L41.4901 53.3871L41.4573 53.2802C41.2933 53.2956 41.1198 53.3206 40.9482 53.3544C40.7379 53.3977 40.5318 53.4566 40.3119 53.53L40.1497 53.2272L40.3119 53.2918C40.2461 53.1529 40.2712 53.1877 40.2327 53.1982C40.1129 52.964 39.8877 53.1193 39.8085 53.1193L39.7814 53.1299C39.8488 53.2359 39.8122 53.4259 40.0089 53.7683L39.9627 53.7933C40.0244 53.8897 40.0284 53.8897 39.9781 53.8559C39.7428 53.7094 39.6425 53.826 39.5309 53.9293C39.4248 54.0314 39.311 54.1193 38.9947 53.9534L39.0738 54.0344L39.0814 54.1733L39.1605 54.2513C39.1143 54.2794 38.9215 54.1588 38.7982 54.0951C38.7616 54.1289 38.665 54.0171 38.5842 54.0025C38.3778 53.9677 38.3565 54.2309 38.642 54.5182L38.6189 54.5433L38.7096 54.6118L38.6884 54.6302L38.5977 54.5589C38.563 54.5975 38.3297 54.3912 38.1968 54.3197L38.1696 54.3381C38.3296 54.4605 38.1388 54.5626 38.1754 54.6553C38.0693 54.768 37.9824 54.8462 37.6314 54.7586L37.7259 54.8212C37.7066 54.8462 37.7259 54.8799 37.7857 54.9339L37.7683 55.143L37.8725 55.196C37.8108 55.221 37.7491 55.2452 37.6893 55.2742C37.6219 55.3908 37.6412 55.5585 37.5043 55.6443L37.2285 55.7821L37.165 55.899C37.3155 55.9519 37.2596 56.0407 37.3249 56.0878C37.269 56.1959 37.1552 56.3146 37.2863 56.4446C37.2536 56.5035 37.215 56.5815 37.1821 56.6549L37.1242 56.7669C37.1087 56.8111 37.103 56.8053 37.0857 56.8198L37.0933 56.8884V56.9231V56.9318V56.9376L37.0857 57.005V57.0096V57.0434C36.9912 57.1757 36.6286 57.3802 36.9546 57.5468L36.9005 57.8053L37.0279 58.0011C37.0086 58.1131 36.7599 58.2295 36.9836 58.327C36.9739 58.5122 36.9661 58.7022 36.9836 58.8911L37.0935 58.8699C37.1032 58.9953 37.0606 59.2247 37.1243 59.4137C37.1841 59.6104 37.3327 59.7551 37.6585 59.6914L37.5872 59.8842C37.5989 59.9459 37.616 60.0038 37.6314 60.0673C37.6951 60.2718 37.7452 60.4319 37.7183 60.6671C37.7857 60.7287 37.8552 60.7943 37.9208 60.8463L38.019 60.7826C38.0346 60.8175 38.0615 60.8097 38.1388 60.7826C38.0095 60.8637 38.0404 60.8366 38.0597 60.8715C38.2023 60.7789 38.4646 61.1994 38.6997 61.1145C38.6746 61.2919 38.6516 61.4733 38.6459 61.6544C38.7268 61.6969 38.8 61.7393 38.8773 61.7798C38.9506 61.8667 39.0082 62.0075 39.1743 61.9592C39.2842 62.0807 39.3864 62.2852 39.7489 61.9051L39.774 61.9245C39.6737 62.0597 39.6583 62.1444 39.6159 62.2465C39.6893 62.2658 39.7604 62.2851 39.8395 62.2948C39.93 62.152 40.1365 62.3931 40.2387 62.3295C40.3042 62.3836 40.3754 62.4375 40.4508 62.4915C40.5357 62.3199 40.5645 62.3758 40.6263 62.3295C40.7476 62.4183 40.8925 62.6343 41.0814 62.4761C41.1718 62.48 41.2567 62.4878 41.3475 62.48L41.6174 62.4761L41.7563 62.4607C41.7988 62.4607 41.8451 62.4568 41.8642 62.4452C41.8759 62.453 41.8835 62.457 41.895 62.4607C41.947 62.5688 41.9684 62.748 42.1727 63.018L42.1285 63.0468C42.1998 63.1356 42.2056 63.1356 42.1556 63.1085C41.9088 62.9831 41.8239 63.1085 41.737 63.2166C41.6406 63.3284 41.5481 63.417 41.2127 63.2783L41.3014 63.3553L41.3245 63.4846L41.4114 63.5596C41.3765 63.5925 41.1722 63.4787 41.0431 63.4322C41.0123 63.4593 40.9062 63.363 40.8252 63.3552C40.6226 63.334 40.6361 63.5866 40.9465 63.841L40.9272 63.8603L41.0254 63.922L41.0061 63.9432L40.9155 63.8795C40.877 63.9181 40.6302 63.7387 40.4894 63.6713L40.4701 63.6906C40.6399 63.8026 40.4683 63.9029 40.5145 63.9857C40.4278 64.0994 40.3486 64.167 39.9978 64.1033L40.102 64.1573C40.0827 64.1805 40.1077 64.2075 40.1676 64.2556C40.1676 64.3193 40.1715 64.383 40.1715 64.4465L40.2794 64.4948L40.1077 64.5719C40.0595 64.6779 40.0923 64.8245 39.9649 64.9092L39.6969 65.029L39.6468 65.1332C39.7972 65.1814 39.7547 65.2546 39.8184 65.3027C39.7758 65.4012 39.6679 65.4918 39.803 65.6211L39.7064 65.8042L39.6562 65.9025L39.6157 65.9429L39.6213 66.0046L39.6252 66.0354V66.0432V66.049L39.6156 66.1127V66.1415C39.5249 66.2592 39.1642 66.4288 39.492 66.5811L39.4246 66.8049L39.55 66.9842C39.5307 67.0768 39.2781 67.1693 39.4863 67.2657C39.4709 67.4334 39.4555 67.5937 39.4534 67.7594L39.5654 67.7497C39.5615 67.8617 39.5075 68.0679 39.55 68.2434C39.5905 68.4187 39.7198 68.5616 40.0494 68.5153L39.9567 68.6927L39.982 68.8682C40.0167 69.0571 40.0476 69.2133 39.9935 69.4332C40.0496 69.4949 40.1074 69.5586 40.1672 69.6182L40.2675 69.568C40.2792 69.5989 40.3041 69.5931 40.3871 69.5757C40.2521 69.6414 40.2868 69.6182 40.2966 69.6529C40.4487 69.5757 40.6553 70.004 40.8964 69.9421C40.8501 70.1098 40.8115 70.2855 40.7768 70.4609C40.8462 70.5129 40.9175 70.5632 40.9928 70.6132C41.0466 70.7058 41.1007 70.8524 41.2647 70.8271C41.3611 70.9564 41.4478 71.1722 41.8451 70.831L41.8663 70.8561C41.7602 70.9776 41.737 71.0606 41.6811 71.1625C41.7563 71.1878 41.8297 71.2108 41.9028 71.2378C42.007 71.0988 42.1998 71.3669 42.3116 71.3111C42.3791 71.3728 42.4524 71.4307 42.5295 71.4885C42.624 71.3227 42.6491 71.3882 42.7147 71.3498C42.8361 71.4462 42.9808 71.6737 43.1909 71.5271C43.2854 71.5387 43.3722 71.5483 43.4648 71.5543L43.7464 71.5582C43.8389 71.5543 43.9643 71.5543 44.0241 71.5388C44.0588 71.5582 44.0954 71.5738 44.1283 71.5582H44.1359L44.1398 71.5543H44.1437L44.1996 71.5619V71.558L44.2247 71.5541C44.2421 71.5424 44.2575 71.5348 44.275 71.5231C44.3058 71.5 44.3387 71.4651 44.3675 71.4151C44.4409 71.3958 44.514 71.3765 44.5835 71.3572C44.7588 71.4016 45.1793 71.2898 45.2662 70.987C45.355 70.9928 45.457 70.9521 45.4899 70.7632C45.623 70.7632 45.7696 70.6861 45.7752 70.4124C45.8117 70.362 45.8467 70.3234 45.8832 70.2813C46.024 70.2601 46.1839 70.1095 46.1048 69.7779C46.1202 69.7296 46.1358 69.691 46.1531 69.6448C46.1685 69.6022 46.1782 69.5638 46.1897 69.5194C46.3017 69.4808 46.3229 69.3246 46.3054 69.1435C46.8474 68.6827 47.2369 67.9903 47.345 67.1688C47.4296 66.5902 47.3526 66.0273 47.1635 65.5373C47.2205 65.5143 47.2034 65.528 47.1956 65.5106ZM37.4707 56.3044L37.4978 56.2465C37.6637 56.2994 37.6444 56.3198 37.6964 56.3668L37.4707 56.3044ZM38.5623 54.7493L38.6511 54.8226C38.6161 54.8565 38.4638 54.7396 38.3385 54.6568L38.5623 54.7493ZM39.9775 65.4931L39.9987 65.4469C40.1664 65.4894 40.1549 65.5106 40.1993 65.5529L39.9775 65.4931ZM40.67 63.9813L40.8956 64.0622L40.9959 64.1241C40.9651 64.1586 40.8089 64.0567 40.67 63.9813ZM43.0555 64.0815L43.0728 64.0698C43.1788 64.203 43.1673 64.2086 43.1905 64.2665C43.088 64.1432 43.0997 64.1586 43.0555 64.0815ZM46.2584 64.2667C46.2642 64.2725 46.2564 64.2938 46.2467 64.3286C46.2371 64.3247 46.2334 64.3208 46.2274 64.315C46.2371 64.3015 46.2545 64.2821 46.2584 64.2667ZM45.7337 64.0507V64.0468V64.0507ZM44.9644 63.6612V63.9044C44.9568 63.9044 44.949 63.9044 44.947 63.9044L44.949 63.6575L44.9644 63.6612ZM44.762 63.7268L44.8025 63.8464C44.7928 63.6573 44.8025 63.7344 44.8276 63.7404C44.8315 63.8329 44.8276 63.8869 44.8218 63.9101C44.8064 63.9101 44.7967 63.9101 44.7852 63.9157C44.7755 63.8906 44.764 63.8655 44.7544 63.8328C44.7754 63.8423 44.7735 63.8752 44.762 63.7268ZM43.4218 63.9292C43.5471 64.1241 43.4643 64.1298 43.4489 64.1586C43.3486 64.0178 43.3599 64.0121 43.3504 63.9541L43.2908 63.8616L43.3235 63.8462C43.4257 64.0045 43.4006 63.9389 43.4218 63.9292ZM43.4082 63.1195C43.3233 63.1404 43.2366 63.1984 43.0456 62.9902C43.1634 63.0075 43.2483 62.9651 43.4082 63.1195ZM43.0939 63.2138C43.0206 63.237 42.9494 63.266 42.8779 63.3007L42.8549 63.3104C42.7371 63.131 42.7604 63.0983 42.7314 62.9941C42.8547 63.0615 42.978 63.1367 43.0939 63.2138ZM40.7664 54.9237L40.7894 54.917C40.8743 55.0567 40.8627 55.0615 40.8743 55.1261C40.7914 54.9932 40.8048 55.0086 40.7664 54.9237ZM41.0383 54.7212L41.073 54.7146C41.1618 54.8813 41.1367 54.8128 41.1655 54.808C41.2639 55.0134 41.1829 55.0134 41.1616 55.0364C41.0767 54.886 41.0903 54.886 41.0882 54.8273L41.0383 54.7212ZM44.1526 55.2862C44.1468 55.2862 44.1392 55.2805 44.1333 55.2756C44.1429 55.2602 44.1526 55.2379 44.1621 55.2225C44.166 55.2264 44.1621 55.2563 44.1526 55.2862ZM42.7815 54.6432L42.7698 54.8862C42.7678 54.8862 42.7602 54.8862 42.7565 54.8862L42.7622 54.6375L42.7815 54.6432ZM42.5713 54.701L42.606 54.8186C42.5984 54.6267 42.6177 54.7068 42.6409 54.7144C42.6409 54.8126 42.6352 54.8609 42.6274 54.886C42.6101 54.886 42.5986 54.886 42.5869 54.8899C42.5752 54.8706 42.5676 54.8407 42.554 54.808C42.577 54.8128 42.5713 54.8475 42.5713 54.701ZM41.2427 53.9876C41.1558 54.0078 41.0613 54.0532 40.8956 53.8333C41.0054 53.8574 41.1038 53.8275 41.2427 53.9876ZM40.9188 54.0569C40.8455 54.0771 40.7665 54.0964 40.6893 54.1206L40.67 54.1302C40.5639 53.9393 40.5947 53.9018 40.5754 53.7985C40.695 53.8814 40.8107 53.9692 40.9188 54.0569ZM40.0065 53.277L40.2881 53.6568L40.2669 53.6665L40.3249 53.7638L40.2478 53.7946C40.1261 53.5942 40.0817 53.4534 40.0065 53.277ZM42.1123 62.535L42.4363 62.8821L42.4091 62.8897L42.4747 62.99L42.4073 63.0229C42.2706 62.8319 42.2048 62.7008 42.1123 62.535Z" fill="#003366"/>
<path d="M47.0375 64.4752L47.1244 64.4018L47.1341 64.4211L47.4021 64.2033C47.3731 64.155 47.3922 64.0818 47.4175 63.9988L47.3094 64.0315L47.2284 64.1106L47.2167 64.0972L47.1318 64.1685C47.1686 64.2378 47.1474 64.3208 47.0375 64.4752Z" fill="#003366"/>
<path d="M45.5372 62.165L45.4851 62.1533C45.4812 62.1533 45.4716 62.1533 45.4677 62.1533C45.4599 62.1611 45.4465 62.1611 45.4406 62.1533L45.4252 62.2729C45.3865 62.2633 45.4291 62.3636 45.433 62.3944C45.4463 62.2961 45.4541 62.2729 45.4617 62.267H45.4675H45.4695L45.5197 62.2766L45.5236 62.2865C45.5236 62.2921 45.5314 62.2961 45.5353 62.2999C45.5528 62.2033 45.5528 62.1745 45.5489 62.1648H45.5411H45.5372V62.165Z" fill="#003366"/>
<path d="M41.7844 62.859L41.7111 62.7742C41.6784 62.7935 41.5261 62.7008 41.4546 62.6663L41.4875 62.784C41.6515 62.9593 41.7285 62.8728 41.7844 62.859Z" fill="#003366"/>
<path d="M41.2832 63.0772C41.2524 63.1023 41.2871 63.1198 41.1772 63.0193L41.1521 63.0366L41.3237 63.1889C41.3467 63.1757 41.3276 63.1506 41.2832 63.0772Z" fill="#003366"/>
<path d="M44.7039 62.4619C44.6943 62.3345 44.6885 62.3077 44.6634 62.2344L44.6731 62.3462C44.6326 62.3423 44.6904 62.4387 44.7039 62.4619Z" fill="#003366"/>
<path d="M44.2661 62.3269L44.328 62.5544H44.38L44.3473 62.3269H44.2661Z" fill="#003366"/>
<path d="M43.7786 62.354L43.8402 62.5797L43.8131 62.5854C43.8573 62.7262 43.8402 62.6913 43.8727 62.6855L43.9076 62.7975C43.9424 62.7936 43.9251 62.6818 43.9194 62.5739C43.9907 62.5659 43.7958 62.3694 43.7786 62.354Z" fill="#003366"/>
<path d="M44.2124 62.3269C44.1604 62.3269 44.1043 62.3308 44.0504 62.3345L44.1006 62.672L44.1277 62.784H44.1528C44.1778 62.8899 44.1778 62.8631 44.1778 62.7782C44.2204 62.7782 44.1914 62.5931 44.1817 62.4426H44.2319L44.2124 62.3269Z" fill="#003366"/>
<path d="M43.3157 61.9797L43.5124 62.1707C43.4351 61.9567 43.3677 61.9952 43.3157 61.9797Z" fill="#003366"/>
<path d="M44.4458 61.9915H44.3842C44.4284 62.1166 44.4129 62.0184 44.4458 61.9915Z" fill="#003366"/>
<path d="M44.7928 62.0184L44.6481 62.0049L44.7157 62.1206L44.7967 62.1341L44.7928 62.0184Z" fill="#003366"/>
<path d="M44.6845 62.9205C44.7155 62.9205 44.7098 62.8857 44.727 62.8125C44.7155 62.6197 44.6789 62.6911 44.6423 62.6851L44.6845 62.9205Z" fill="#003366"/>
<path d="M44.5383 62.3345L44.3724 62.3269L44.5075 62.5659L44.4959 62.4465H44.5481L44.5383 62.3345Z" fill="#003366"/>
<path d="M44.5268 62.9013C44.5075 62.7683 44.496 62.7471 44.4707 62.6719L44.4861 62.7839C44.4536 62.7837 44.5114 62.8782 44.5268 62.9013Z" fill="#003366"/>
<path d="M28.685 83.1283C28.7584 82.9528 28.6906 83.003 28.6597 82.9836L28.6172 83.0897C28.5825 83.0704 28.5979 83.1842 28.5979 83.2112C28.6657 83.0319 28.654 83.1109 28.685 83.1283Z" fill="#003366"/>
<path d="M29.3232 83.4272L29.219 83.6317C29.2478 83.651 29.2616 83.6085 29.1901 83.7474C29.2229 83.7781 29.3037 83.5197 29.3232 83.4272Z" fill="#003366"/>
<path d="M29.2191 83.2075L29.1322 83.5623C29.221 83.3925 29.2191 83.2885 29.2191 83.2075Z" fill="#003366"/>
<path d="M27.7824 82.4282L27.7458 82.5476L27.7496 82.5398L27.7824 82.4282Z" fill="#003366"/>
<path d="M29.5779 84.2295L29.5991 84.2504L29.7882 83.9631C29.7419 83.913 29.7168 83.8359 29.7072 83.7395L29.6106 83.7974L29.5489 83.8998L29.5296 83.8786L29.4717 83.9787C29.5432 84.0406 29.5586 84.1388 29.5161 84.3279L29.5779 84.2295Z" fill="#003366"/>
<path d="M25.989 82.1697L25.9043 82.1582L25.9388 82.3972L25.9929 82.403L25.989 82.1697Z" fill="#003366"/>
<path d="M24.9924 81.6375L25.1447 81.8709C25.1195 81.6413 25.0463 81.6644 24.9924 81.6375Z" fill="#003366"/>
<path d="M27.1984 82.1969L27.204 82.2084C27.2079 82.2123 27.2138 82.222 27.2233 82.222C27.233 82.1295 27.2291 82.1005 27.2176 82.0908C27.1732 82.0754 27.1732 82.0908 27.1481 82.0851L27.1306 82.1971C27.0922 82.1872 27.1345 82.2953 27.1384 82.3204C27.1559 82.2279 27.1656 82.1971 27.1732 82.1971C27.1828 82.1969 27.1635 82.1969 27.1984 82.1969Z" fill="#003366"/>
<path d="M25.4031 82.4514L25.4185 82.5634C25.4629 82.5673 25.4705 82.4553 25.4859 82.3435C25.5708 82.3474 25.3954 82.1197 25.378 82.1042L25.3954 82.3396L25.3704 82.3338C25.3858 82.4859 25.3704 82.4514 25.4031 82.4514Z" fill="#003366"/>
<path d="M30.2894 85.5135L30.2586 85.5406C29.9791 85.2089 29.6262 84.9197 29.2193 84.6613C29.1594 84.5571 29.1498 84.372 29.0341 84.3489L28.9782 84.4453C28.903 84.3874 28.9087 84.2371 28.8199 84.4357C28.7679 84.4069 28.7217 84.376 28.6656 84.3528C28.8275 84.0018 28.9414 83.6896 28.7949 83.7434L28.7774 83.7241C28.7891 83.6991 28.5614 83.8207 28.5402 83.7087L28.5018 83.6799L28.5402 83.5739C28.5692 83.5932 28.5692 83.57 28.6271 83.4948L28.6465 83.5044L28.6947 83.4023C28.5501 83.3077 28.3456 83.5854 28.2202 83.5081C28.176 83.4888 28.2531 83.3135 28.3071 83.1766C28.2144 83.1246 28.0623 82.8757 27.9004 83.354C27.8482 83.3231 27.8694 83.1341 27.8714 82.9643L27.9043 82.8523L27.8539 82.8254C27.796 83.0548 27.694 82.9834 27.6515 82.9873L27.6786 82.8753L27.6515 82.8636L27.746 82.5475L27.5551 82.7056L27.4355 83.265C27.3759 83.2418 27.343 83.0895 27.2639 83.0798L27.285 82.9678L27.2542 82.9582L27.2754 82.8406C27.3488 82.8309 27.4141 82.8116 27.4778 82.7981L27.501 82.6861L27.4507 82.661L27.4719 82.5473C27.4507 82.5667 27.4468 82.5241 27.4236 82.6552L27.2483 82.5915L27.173 82.5628C27.1558 82.5589 27.1654 82.5589 27.1249 82.5531L27.0863 82.5395L27.0709 82.6515L26.9494 82.5011C26.9244 82.744 26.7316 82.447 26.6833 82.4277C26.6582 82.7284 26.5867 82.8018 26.5367 82.9716C25.9775 82.8363 25.3893 82.7632 24.7857 82.7786L24.7415 82.5473C24.8052 82.4586 24.8687 82.3776 24.9322 82.2908L25.1502 82.2078L25.1404 82.096C24.9534 82.0903 24.7585 82.0903 24.5678 82.0999C24.3191 82.1153 24.076 82.1385 23.8215 82.1827L23.7231 81.8512L23.8832 81.938C23.8407 81.7935 23.86 81.826 23.8176 81.8358C23.7463 81.5832 23.4666 81.6989 23.378 81.6852L23.3451 81.6948C23.3895 81.8105 23.297 82.0033 23.4224 82.3718L23.3587 82.393C23.4012 82.5011 23.4051 82.5011 23.3587 82.4587C23.1505 82.2697 22.9961 82.3718 22.8477 82.4664C22.6915 82.5533 22.5374 82.6283 22.2402 82.4067L22.2982 82.505L22.2616 82.6437L22.3195 82.744C22.256 82.773 22.0939 82.6129 21.9783 82.528C21.9282 82.5533 21.8608 82.4279 21.7759 82.3969C21.5619 82.3295 21.4462 82.6168 21.6524 82.9677L21.6253 82.987L21.6908 83.0757L21.66 83.0951L21.5926 83.0026C21.5346 83.041 21.3515 82.7903 21.2397 82.69L21.2031 82.7093C21.3303 82.8635 21.0855 82.9637 21.0892 83.0698C20.9273 83.1874 20.8038 83.2704 20.4529 83.1489L20.5378 83.226C20.5049 83.2548 20.5185 83.2877 20.561 83.3571C20.5281 83.4459 20.4936 83.5287 20.4607 83.6157L20.5534 83.689C20.48 83.7141 20.3991 83.7429 20.3238 83.7778C20.2178 83.9186 20.183 84.1326 19.9999 84.2501C19.8881 84.3023 19.7743 84.3621 19.6606 84.4295L19.5621 84.5915C19.7029 84.6649 19.6277 84.7767 19.676 84.8538C19.5911 85.0003 19.4485 85.1663 19.5564 85.3513C19.4658 85.5231 19.3788 85.6773 19.2941 85.8738L19.2863 85.9915L19.2824 86.0495V86.0727V86.119V86.1266V86.1362L19.2728 86.1845V86.1903L19.2689 86.2386C19.1686 86.4392 18.806 86.7748 19.1513 86.9945C19.1359 87.1178 19.1223 87.2432 19.1127 87.3704L19.2689 87.6481C19.2689 87.8043 19.0453 87.9895 19.2863 88.1128C19.319 88.375 19.3692 88.6276 19.4368 88.8763L19.5467 88.8379C19.5893 89.0037 19.624 89.3044 19.7455 89.534C19.8688 89.7673 20.0772 89.9196 20.3896 89.8018L20.3838 90.0371L20.4975 90.2416C20.6305 90.4712 20.7347 90.6428 20.7887 90.9013C20.8814 90.9591 20.9642 91.0132 21.0606 91.0672L21.1398 90.9823C21.1648 91.0171 21.188 91.0035 21.2633 90.9591C21.1591 91.0711 21.1765 91.0325 21.2074 91.0711C21.3309 90.9478 21.7319 91.3488 21.9575 91.2255C21.9807 91.4125 22.0116 91.6014 22.0463 91.7923C22.1408 91.8272 22.2255 91.856 22.3201 91.8811C22.4167 91.9622 22.511 92.0952 22.6711 92.02C22.81 92.132 22.9623 92.3189 23.2669 91.8889L23.2862 91.9082C23.2129 92.0605 23.2129 92.1435 23.186 92.2553C23.2727 92.267 23.3498 92.2746 23.4328 92.2804C23.5041 92.1205 23.7606 92.3441 23.8551 92.2707C23.938 92.319 24.021 92.3632 24.1059 92.4058C24.1696 92.2284 24.2101 92.2843 24.2621 92.2321C24.4105 92.3094 24.5841 92.5176 24.7712 92.3478C24.8637 92.3478 24.9563 92.3478 25.0509 92.3439C25.1413 92.34 25.2379 92.34 25.3247 92.3285L25.585 92.2938C25.6621 92.3189 25.7026 92.3322 25.7587 92.3285C25.8475 92.3189 25.9032 92.2802 25.9688 92.182C26.0479 92.1627 26.1252 92.1532 26.2059 92.1279C26.3833 92.182 26.8289 92.1145 26.9736 91.8272C27.0757 91.8465 27.1894 91.8233 27.2646 91.642C27.4151 91.6614 27.6021 91.6112 27.6868 91.3393L27.8545 91.2314C28.0339 91.2411 28.273 91.1253 28.329 90.7782C28.3675 90.734 28.4082 90.7011 28.4427 90.6567L28.5564 90.5353C28.7128 90.5199 28.8322 90.3637 28.9152 90.1651C30.0452 89.7025 30.8494 88.852 30.9939 87.7894C31.1018 86.995 30.8262 86.2198 30.2746 85.5621C30.3223 85.5233 30.3049 85.5367 30.2894 85.5135ZM19.778 85.1433L19.8185 85.0662C19.9823 85.1279 19.9592 85.1567 19.9977 85.2261L19.778 85.1433ZM21.2629 83.0858L21.4769 83.2149L21.5541 83.3055C21.5019 83.3384 21.3747 83.1918 21.2629 83.0858ZM24.3096 83.4888L24.3616 83.481C24.4157 83.6604 24.4099 83.593 24.4428 83.5854C24.5045 83.8109 24.3925 83.7975 24.3616 83.8207C24.3096 83.6606 24.3289 83.6547 24.3444 83.5969L24.3096 83.4888ZM28.475 84.2678C28.4654 84.2639 28.4576 84.2639 28.4461 84.2602C28.4539 84.2408 28.4615 84.2158 28.4654 84.2022C28.4808 84.2061 28.4808 84.2369 28.475 84.2678ZM27.6706 83.9959C27.6706 83.9959 27.6706 83.9901 27.6784 83.9901C27.6784 83.9959 27.6706 83.9959 27.6706 83.9959ZM26.5408 83.5583L26.5717 83.5622L26.5445 83.8109C26.5406 83.8109 26.5312 83.8109 26.5252 83.8109L26.5408 83.5583ZM26.2767 83.6082L26.3209 83.7317C26.3306 83.5427 26.3421 83.6274 26.375 83.6315C26.3692 83.7278 26.3575 83.778 26.3421 83.801C26.3304 83.801 26.3133 83.801 26.288 83.801C26.2765 83.7817 26.263 83.7529 26.2533 83.72C26.2823 83.7239 26.2726 83.7568 26.2767 83.6082ZM24.7589 82.7789C24.651 82.7789 24.5353 82.8118 24.3966 82.5668C24.5178 82.6133 24.6296 82.5921 24.7589 82.7789ZM24.0474 82.4899C24.1534 82.5921 24.2615 82.6944 24.3676 82.7984C24.2712 82.8061 24.1766 82.8215 24.0842 82.8313L24.0572 82.8369C23.9933 82.6307 24.0377 82.5979 24.0474 82.4899ZM23.9452 83.6545C24.005 83.8107 23.9839 83.8164 23.9818 83.8783C23.9239 83.7394 23.9354 83.7529 23.9239 83.666L23.9452 83.6545ZM23.7619 82.3048L23.7329 82.3087L23.7716 82.4207L23.6789 82.4418C23.5998 82.2182 23.5882 82.0696 23.5554 81.8807L23.7619 82.3048Z" fill="#003366"/>
<path d="M22.4179 82.2123C22.3774 82.2277 22.4043 82.2548 22.3311 82.1235L22.2946 82.1351L22.4082 82.3395C22.4469 82.3239 22.4352 82.2952 22.4179 82.2123Z" fill="#003366"/>
<path d="M23.0714 82.1157L23.0252 82.0078C22.975 82.0232 22.8593 81.8843 22.7995 81.8362L22.7783 81.9634C22.8768 82.1831 23.0021 82.11 23.0714 82.1157Z" fill="#003366"/>
<path d="M25.6652 82.5881H25.6941C25.7017 82.7057 25.7038 82.6709 25.7212 82.592C25.7694 82.5978 25.7751 82.4126 25.7887 82.2603L25.8466 82.266V82.1542L25.673 82.1292L25.6613 82.4761L25.6652 82.5881Z" fill="#003366"/>
<path d="M26.4867 82.0308L26.4945 81.9151L26.3422 81.8843L26.4001 82.0117L26.4867 82.0308Z" fill="#003366"/>
<path d="M26.1281 82.4207L26.1319 82.3087L26.1859 82.3204L26.1898 82.2047L26.0221 82.1738L26.1281 82.4207Z" fill="#003366"/>
<path d="M26.2629 82.5633L26.2784 82.7986C26.3149 82.8062 26.3149 82.7735 26.3421 82.6944C26.3478 82.5055 26.2977 82.575 26.2629 82.5633Z" fill="#003366"/>
<path d="M26.3323 82.2314C26.2879 82.2218 26.342 82.3239 26.3517 82.3549C26.3595 82.2218 26.3517 82.1928 26.3362 82.1157L26.3323 82.2314Z" fill="#003366"/>
<path d="M26.1028 82.7675C26.1028 82.6307 26.0911 82.6056 26.0739 82.5283V82.6403C26.0354 82.6401 26.0913 82.7404 26.1028 82.7675Z" fill="#003366"/>
<path d="M26.1356 81.8519L26.0776 81.842C26.1068 81.9791 26.1068 81.877 26.1356 81.8519Z" fill="#003366"/>
<path d="M40.8626 102.591C40.9012 102.587 40.9051 102.528 40.8492 102.518C40.8453 102.514 40.8318 102.518 40.8242 102.518C40.8143 102.568 40.8453 102.597 40.8626 102.591Z" fill="#003366"/>
<path d="M6.94647 101.93C6.97544 101.93 6.98306 101.87 6.9292 101.864C6.91954 101.86 6.91564 101.864 6.90208 101.864C6.89837 101.909 6.9253 101.932 6.94647 101.93Z" fill="#003366"/>
<path d="M45.2708 108.003C44.2873 108.006 43.2597 107.823 42.4053 107.335C41.9869 107.087 41.6204 106.745 41.3755 106.333C41.1286 105.916 41.0149 105.434 40.9956 104.952L40.9262 104.937C40.934 105.411 41.0244 105.887 41.2482 106.311C41.4005 106.602 41.6147 106.869 41.8595 107.087C41.3078 106.622 40.8953 105.939 40.8491 104.94C40.9551 104.873 41.067 104.805 41.1769 104.736C41.636 104.477 42.0948 104.225 42.5114 103.887C42.7679 103.679 43.0071 103.43 43.1594 103.112C43.3156 102.8 43.358 102.426 43.3175 102.09C43.279 101.739 43.144 101.396 42.9376 101.104C42.7294 100.817 42.4555 100.574 42.1449 100.397C41.8346 100.215 41.4971 100.1 41.1346 100.046C40.7759 100.003 40.3903 100.015 40.0278 100.138C39.6305 100.275 39.3064 100.559 39.052 100.829C38.7934 101.099 38.564 101.396 38.3616 101.72C38.0087 102.283 37.7446 102.927 37.6268 103.617C36.6068 104.018 35.5327 104.342 34.4469 104.62C33.2744 104.913 32.0828 105.144 30.8853 105.331C29.6781 105.517 28.4612 105.653 27.2521 105.723C26.0392 105.785 24.8166 105.796 23.6558 105.638C22.4832 105.453 21.2877 105.171 20.1423 104.824C18.9854 104.477 17.863 104.061 16.7811 103.559C14.6078 102.575 12.6198 101.314 10.7645 99.8989C10.6585 99.8256 10.5582 99.7524 10.4542 99.6907C10.5197 99.0234 10.4753 98.3254 10.2342 97.6583C10.0935 97.2476 9.88321 96.8561 9.58437 96.5167C9.54184 96.4725 9.51101 96.4397 9.459 96.3856L9.36057 96.2814C9.27383 96.2005 9.18319 96.1252 9.10036 96.0615C8.92874 95.9265 8.74747 95.8108 8.55653 95.7068C7.78333 95.3056 6.95609 95.1706 6.13831 95.2092C5.90503 95.2189 5.63498 95.2672 5.3939 95.3788C5.14706 95.4869 4.93106 95.6488 4.75164 95.8455C4.39299 96.2389 4.21376 96.7905 4.27153 97.3072L4.36031 98.1016L5.08912 97.8241C5.11809 97.8124 5.20483 97.7855 5.26277 97.7738C5.32462 97.7545 5.3939 97.745 5.45371 97.7312C5.58873 97.7158 5.71596 97.7101 5.83353 97.7197C6.07665 97.7312 6.25588 97.8083 6.38515 97.9356C6.56438 98.0938 6.67433 98.406 6.72634 98.7725C6.68771 98.7686 6.65687 98.7648 6.61824 98.7648C6.46984 98.7455 6.31364 98.734 6.13237 98.7494C5.94534 98.7648 5.73713 98.8074 5.5345 98.9093L5.46318 98.9537L5.40727 98.9885L5.32444 99.0464C5.25312 99.0947 5.18551 99.1467 5.12385 99.1969C5.00238 99.2953 4.88277 99.4091 4.78266 99.5286C4.56851 99.7676 4.40284 100.036 4.28118 100.323C4.03045 100.89 3.94761 101.499 3.97658 102.083C4.00742 102.668 4.15396 103.254 4.4567 103.79C4.75758 104.326 5.27633 104.808 5.92026 104.984C6.54506 105.171 7.25474 105.059 7.78315 104.743C8.31917 104.423 8.71255 103.991 9.03071 103.536C9.24281 103.235 9.41647 102.917 9.56877 102.596C10.9553 103.643 12.2723 104.8 13.6164 105.934C15.2594 107.325 16.9429 108.7 18.8732 109.756C19.8412 110.273 20.8748 110.709 21.974 110.952C22.2401 111.01 22.5256 111.064 22.8032 111.093C23.0885 111.128 23.3701 111.133 23.6556 111.118C24.2245 111.099 24.7913 111.016 25.3487 110.894C26.2473 110.698 27.1074 110.42 27.9634 110.1C31.6023 108.818 35.706 106.55 38.6407 105.341C38.6446 105.352 38.6506 105.364 38.6543 105.368C39.0362 106.008 39.3042 106.71 39.7263 107.325C39.9366 107.632 40.1968 107.933 40.5421 108.11C40.868 108.299 41.1977 108.48 41.5354 108.662C41.8669 108.831 42.2083 108.997 42.5671 109.132C42.9161 109.271 43.2844 109.396 43.6739 109.421C44.0615 109.46 44.4666 109.344 44.7829 109.105C45.1087 108.87 45.3208 108.5 45.3575 108.095L45.3672 108.002H45.2708V108.003ZM40.7142 103.077C40.6544 102.958 40.6544 102.834 40.6814 102.723C40.6931 102.591 40.7663 102.528 40.8242 102.518V102.514V102.507V102.503C40.8318 102.507 40.7759 102.499 40.801 102.503H40.803H40.8088H40.8144L40.8454 102.499H40.8587L40.853 102.489C40.853 102.489 40.8491 102.479 40.8491 102.476C40.8491 102.458 40.8684 102.451 40.8838 102.437C40.9167 102.412 40.965 102.395 41.0285 102.395C41.1344 102.387 41.308 102.45 41.3389 102.597C41.3543 102.618 41.36 102.649 41.3678 102.684C41.335 102.8 41.2636 102.904 41.1673 102.977C41.0131 103.031 40.853 103.006 40.7527 102.938L40.741 103.006C40.7546 103.035 40.7759 103.058 40.8008 103.089C40.7737 103.089 40.7525 103.089 40.7274 103.085C40.7239 103.085 40.7182 103.077 40.7142 103.077ZM6.79023 102.422C6.73432 102.298 6.73432 102.179 6.76125 102.067C6.77296 101.932 6.84613 101.874 6.90204 101.865C6.9078 101.861 6.90204 101.861 6.9078 101.855V101.851C6.90204 101.851 6.89814 101.851 6.87696 101.845H6.88087H6.89832L6.92526 101.841L6.93881 101.836L6.93306 101.832C6.93306 101.826 6.92916 101.82 6.9273 101.82C6.92916 101.801 6.94661 101.793 6.96203 101.778C6.99676 101.758 7.04505 101.739 7.11247 101.739C7.21462 101.727 7.38828 101.797 7.42283 101.938C7.43063 101.966 7.44029 101.997 7.44605 102.024C7.41503 102.148 7.34575 102.244 7.24936 102.314C7.09501 102.368 6.93306 102.352 6.8309 102.279L6.81735 102.346C6.83462 102.375 6.85598 102.406 6.87715 102.429C6.85208 102.425 6.8309 102.425 6.80379 102.422C6.79989 102.422 6.79209 102.422 6.79023 102.422Z" fill="#003366"/>
</svg>
